/* XPM */
static char *_3f691d9f6064afbcb131fd34ef34d22dRmIhbxnbAUHTmoV[] = {
/* columns rows colors chars-per-pixel */
"50 50 230 2 ",
"   c #1B0F0B",
".  c #19140A",
"X  c #25180B",
"o  c #3A150A",
"O  c #2A0D11",
"+  c #2B1916",
"@  c #33161B",
"#  c #18241B",
"$  c #3D330F",
"%  c #282618",
"&  c #3C2816",
"*  c #38311B",
"=  c #2A2423",
"-  c #282928",
";  c #372A27",
":  c #2B372B",
">  c #2A2D34",
",  c #333234",
"<  c #383734",
"1  c #333A31",
"2  c #4E191A",
"3  c #56390B",
"4  c #4A2B17",
"5  c #562C19",
"6  c #4B3716",
"7  c #573917",
"8  c #693814",
"9  c #442927",
"0  c #562E2C",
"q  c #4B372B",
"w  c #5A3726",
"e  c #55342C",
"r  c #532D37",
"t  c #4D3333",
"y  c #483739",
"u  c #523333",
"i  c #513438",
"p  c #563C3C",
"a  c #5B3A39",
"s  c #6A2624",
"d  c #623D2E",
"f  c #74392E",
"g  c #622B33",
"h  c #752E33",
"j  c #693A3D",
"k  c #78363D",
"l  c #3A4222",
"z  c #3B442D",
"x  c #3A563B",
"c  c #5D4610",
"v  c #624514",
"b  c #714A15",
"n  c #715315",
"m  c #716511",
"M  c #474329",
"N  c #484237",
"B  c #574439",
"V  c #455335",
"C  c #6A472A",
"Z  c #774626",
"A  c #6D4831",
"S  c #66443C",
"D  c #6D403F",
"F  c #6C4C3A",
"G  c #744737",
"H  c #725330",
"J  c #796531",
"K  c #3D3F45",
"L  c #4C3543",
"P  c #5A3749",
"I  c #673D42",
"U  c #7D394A",
"Y  c #344847",
"T  c #3B564E",
"R  c #3C6447",
"E  c #434B43",
"W  c #4C4947",
"Q  c #574C46",
"!  c #495946",
"~  c #55584A",
"^  c #504D5C",
"/  c #485A57",
"(  c #6C4243",
")  c #694A46",
"_  c #734347",
"`  c #7D4A45",
"'  c #675146",
"]  c #6B5C53",
"[  c #675958",
"{  c #725350",
"}  c #43694B",
"|  c #45704F",
" . c #496B53",
".. c #576B54",
"X. c #546959",
"o. c #467554",
"O. c #497A57",
"+. c #52765A",
"@. c #5A7759",
"#. c #79644C",
"$. c #6C6150",
"%. c #6A6658",
"&. c #627A59",
"*. c #545862",
"=. c #567F60",
"-. c #717763",
";. c #873A37",
":. c #824D19",
">. c #8C541A",
",. c #985514",
"<. c #A1560A",
"1. c #86651B",
"2. c #9A6518",
"3. c #9D721F",
"4. c #AB750E",
"5. c #AB7016",
"6. c #B37212",
"7. c #894E24",
"8. c #854D2B",
"9. c #894C2A",
"0. c #914C2A",
"q. c #835122",
"w. c #86512B",
"e. c #825338",
"r. c #B3503C",
"t. c #8C7126",
"y. c #A47B28",
"u. c #893B4A",
"i. c #943745",
"p. c #82474E",
"a. c #844C4B",
"s. c #954944",
"d. c #90444C",
"f. c #944B4C",
"g. c #9A4D4C",
"h. c #8F524F",
"j. c #93514B",
"k. c #894756",
"l. c #A34D4B",
"z. c #B54C48",
"x. c #BA4C4A",
"c. c #A85346",
"v. c #B75347",
"b. c #B15149",
"n. c #AD4C58",
"m. c #B34E51",
"M. c #A75554",
"N. c #B55755",
"B. c #A6635E",
"V. c #985161",
"C. c #927263",
"Z. c #AE726C",
"A. c #C9514A",
"S. c #C55A54",
"D. c #C9634F",
"F. c #CB6757",
"G. c #D8675C",
"H. c #D8765A",
"J. c #DC765C",
"K. c #E76F5D",
"L. c #EC6E5D",
"P. c #F26C5E",
"I. c #E57255",
"U. c #E4735C",
"Y. c #EA705D",
"T. c #CE6B67",
"R. c #D56763",
"E. c #D66B63",
"W. c #DD6D6B",
"Q. c #C4756B",
"!. c #DA7368",
"~. c #D27571",
"^. c #EB6E63",
"/. c #E76B68",
"(. c #E46F6B",
"). c #F26B63",
"_. c #F06B68",
"`. c #E37262",
"'. c #EA7061",
"]. c #E6706A",
"[. c #EA6E70",
"{. c #4A8456",
"}. c #46845A",
"|. c #4A855C",
" X c #4B8B5E",
".X c #568956",
"XX c #54955E",
"oX c #58965F",
"OX c #56995F",
"+X c #5B9B5E",
"@X c #67955D",
"#X c #629D5C",
"$X c #6BA355",
"%X c #63A15B",
"&X c #6BA659",
"*X c #6DA859",
"=X c #72AB57",
"-X c #4E8561",
";X c #4D8E61",
":X c #558663",
">X c #5D8763",
",X c #538D63",
"<X c #4D9262",
"1X c #519561",
"2X c #529462",
"3X c #549760",
"4X c #519465",
"5X c #599662",
"6X c #658764",
"7X c #629960",
"8X c #62A060",
"9X c #90801B",
"0X c #BC9A0D",
"qX c #AA8513",
"wX c #B09019",
"eX c #B4A30B",
"rX c #AB8823",
"tX c #B58727",
"yX c #C59B09",
"uX c #9B8674",
"iX c #A28363",
"pX c #AD8A7A",
"aX c #B78A77",
"sX c #B68E84",
"dX c #C69085",
"fX c #D2A399",
"gX c #CFB1A4",
"hX c #E8BCB0",
"jX c #E5C4B6",
"kX c #F9CCBB",
/* pixels */
"<X<X<X<X<X<X<X<X<X<X<X<X<X<X<X<X<X X}. X<X<X<X<X<X<X<X<X<X<X<X<X<X<X<X<X<X<X<X<X<X<X<X<X<X<X<X<X<X<X",
"<X<X<X<X<X<X<X<X<X<X<X<X<X<X<X<X<X<X<X<X<X<X<X<X<X<X<X<X<X<X<X<X<X<X<X<X<X<X<X<X<X<X<X<X<X<X<X<X<X<X",
"<X<X<X<X<X<X<X<X<X<X<X<X<X<X<X<X<X<X<X<X<X<X1X1X<X<X<X<X<X<X<X<X<X<X<X<X<X<X<X<X<X<X<X<X<X<X<X<X<X<X",
"<X<X<X<X<X<X<X<X<X<X<X<X<X<X<X<X<X<X<X<X<X1X%X#X1X<X<X<X<X<X<X<X<X<X<X<X<X<X<X<X<X<X<X<X<X<X<X<X<X<X",
"<X<X<X<X<X<X<X<X<X<X<X<X<X<X<X<X<X<X1X3X1X+X=X%X1X<X<X<X<X<X<X<X1X3X<X<X<X<X<X<X<X<X<X<X<X<X<X<X<X<X",
"<X<X<X<X<X<X<X<X<X<X<X<X<X<X<X<X<X<XOX%X+X#X*X8X4X4X4X4X4X<X<X<XOX%X3X<X<X<X<X<X<X<X<X<X<X<X<X<X<X<X",
"<X<X<X<X<X<X<X<X<X<X<X<X<X<X<X<X<X<XXX@X@.....X.X.X.X.X.X.=.1XOX+X%X3X<X<X<X<X<X<X<X<X<X<X<X<X<X<X<X",
"<X<X<X<X<X<X<X<X<X<X<X<X<X<X<X<X<X,X.X&.' S ( D D D _ I I $.6X@X#X%X3X<X<X<X<X<X<X<X<X<X<X<X<X<X<X<X",
"<X<X<X<X<X<X<X<X<X<X<X<X<X<X<X<X,X~ B ` Z.Q.T.E.E.G.E.E.T.B.S B &.5X1X<X<X<X<X<X<X<X<X<X<X<X<X<X<X<X",
"<X<X<X<X<X<X<X<X<X<X<X<X<X<X<X:X%.` g.N.!.].).).Y.U.`.^.].T.M.a.] @.<X<X<X<X<X<X<X<X<X<X<X<X<X<X<X<X",
"<X<X<X<X<X<X<X<X<X<X<X<X<X<X<X@.j n.R.(.^.).).Y.U.J.J.^.^.!.~.Z.a.B ,X<X<X<X<X<X<X<X<X<X<X<X<X<X<X<X",
"<X<X<X<X<X<X<X<X<X<X<X<X<X<X4X@.k T.(.`.`.'.L.U.U.J.H.Y.).`.].W.M.B ,X<X<X<X<X<X<X<X<X<X<X<X<X<X<X<X",
"<X<X<X<X<X<X<X<X<X<X<X<X<X<X+.] g.W.^.U.`.`.U.U.I.U.J.L.L.Y.L.^.S.a.%.:X<X<X<X<X<X<X<X<X<X<X<X<X<X<X",
"<X<X<X<X<X<X<X<X<X<X<X<X<X4X! ( M./.^.K.`.U.U.L.L.Y.L.P.Y.I.I.'.G.g.a +.<X<X<X<X<X<X<X<X<X<X<X<X<X<X",
"<X<X<X<X<X<X<X<X<X<X<X<X<X4X~ ( N./.).L.U.U.L.).L.P.P.P.I.J.U.U.F.l.a +.<X<X<X<X<X<X<X<X<X<X<X<X<X<X",
"<X<X<X<X<X<X<X<X<X<X<X<X<X4X~ _ n.S.G.L.`.`.^._._.).).L.U.J.H.D.S.g.a +.<X<X<X<X<X<X<X<X<X<X<X<X<X<X",
"<X<X<X<X<X<X<X<X<X<X<X<X<X4X~ U n.x.S.G.G.W.].[.[.(.(.`.G.F.F.v.b.j.p +.<X<X<X<X<X<X<X<X<X<X<X<X<X<X",
"<X<X<X<X<X<X<X<X<X<X<X<X<X4XQ U n.z.x.v.v.R.(.W.~.Q.Q.!.S.v.b.b.M.h.p +.<X<X<X<X<X<X<X<X<X<X<X<X<X<X",
"+XOX<X<X<X<X<X<X<X<X<X<X,X .L i k l.b.b.b.N.M.` F F e.N.x.x.x.m.d.j t W +.<X<X<X<X<X<X<X<X<X<X<X<X<X",
"%X+X<X<X<X<X<X<X<X<X<X<X|.1 Q Q p j.c.r.c.j.) z z l M ` l.x.A.b.` e ) i E 1X<X<X<X<X<X<X<X<X<X<XOX+X",
"%X%X+XOX<X<X<X<X<X<X<X<Xo.% C.C.P a.c.r.c.G y N M M q p a.b.z.c.F a pX) : ;X<X<X<X<X<X<X<X<X<X<X+X%X",
"%X%X%XOX<X<X<X<X<X<X<X<Xo.% iXC.L P j ;.M.g.a.k.f.s.f.k.V.f.k I i d aX' : ,X<X<X<X<X<X<X<X<X<X<X+X%X",
"1XOX#XOX<X<X<X<X<X<X<X<X|.! #.` r a e e ` p.p.k.d.d.k.k.k.( t i e w #.$.} <X<X<X<X<X<X<X<X<X<X<X1X1X",
"<X<X1X1X<X<X<X<X<X<X<X<X<X1Xz & 0 A v 7 q t t t r u u i u w 7 A C * % | <X<X<X<X<X<X<X<X<X<X<X<X<X<X",
"<X<X<X<X<X<X<X<X<X<X<X<X<X<X Xx + q C A A A C F F F A A Z Z Z d ; % o.;X<X<X<X<X<X<X<X<X<X<X<X<X<X<X",
"<X<X<X<X<X<X<X<X1XOX+X1X<X<X<X{.x ; q G 8.7.7.w.w.e.w.q.>.9.Z & : R ;X<X<X<X1X+XOX1X<X<X<X<X<X<X<X<X",
"<X<X<X<X<X<X<X<XOX%X%XOX<X<X<X<X;X- @ w Z Z 7.0.0.9.q.q.8.A 4 . x 4X<X<X<X<XOX%X%XOX<X<X<X<X<X<X<X<X",
"<X<X<X<X<X<X<X<X1X+X+X1X<X<X<X<X,XE +   X 4 C 7.>.>.Z w & X   =  .<X<X<X<X<X3X+X+X1X<X<X<X<X<X<X<X<X",
"<X<X<X<X<X<X<X<X<X1X1X<X<X<X<X Xo.E = % 6 6 w C Z Z f 0 6 $ X < / O.<X<X<X<X<X1X1X<X<X<X<X<X<X<X<X<X",
"<X<X<X<X<X<X<X<X<X<X<X<X<X<X<X} # 1 y C rXb 5 7 7 8 s s 2.y.w y > > -X<X<X<X<X<X<X<X<X<X<X<X<X<X<X<X",
"<X<X<X<X<X<X<X<X<X<X<X<X<X<XR : 1 < a 8.tX3 6 9XqXqX1.o m y.f y 1 , 1 o.<X<X<X<X<X<X<X<X<X<X<X<X<X<X",
"3X1X<X<X<X<X<X<X<X<X<X<X<X>X%.] [ ; g ;.n c m eX0XyXwXc n :.;.9 M #.] -.,X<X<X<X<X<X<X<X<X<X<X<X<X<X",
"*X#X1X3X3X1X<X<X<X<X<X<X:X%.gXhXpX+ g k o 1.wX0X0XyX0XwX3 2 i.@ p fXjXpX%.1X<X<X<X<X<X<X<X<X<X<X<X<X",
"%X*X&X&X%X3X<X<X<X<X<X<X:X%.gXkXfX+ 2 h 4 :.4.0XyXyX0X2.v 5 h O ) hXkXaX$.4X<X<X<X<X<X1XOX3X<X<X<X<X",
"XX#X$X$XoX<X<X<X<X<X<X<X,X6XsXdXZ., y j 7 >.6.6.6.6.4.5.b 7 ( - Q sXdXuX>X<X<X<X<X<X<X1X%X&XOX1XOX3X",
" X{..X.X X<X<X<X<X<X<X<X<X4X&.] [ K ^ ^ M t.5.<.<.,.2.y.H N *.Y V #.#.6X<X<X<X<X<X<X<X<XOX&X*X&X*X#X",
";X}.{. X<X<X<X<X<X<X<X<X<X<X<X1X:X- > T / * v tXwXwX3.$ Y / Y # x 7X5X<X<X<X<X<X<X<X<X<X<XoX$X$X#XXX",
"<X<X<X<X<X<X<X<X<X<X<X<X<X<X<X<X;X= 9 _ { , q J t.t.J % W [ I + x 4X<X<X<X<X<X<X<X<X<X<X<X X{..X X;X",
"<X<X<X<X<X<X<X<X<X<X<X<X<X<X<X<X Xz g i.u.' ! / ! ! ! ! _ u.u.u } <X<X<X<X<X<X<X<X<X<X<X<X X}.|.;X<X",
"<X<X<X<X<X<X<X<X<X<X<X<X<X<X<X<X<X,X! + ; .X#XoX;X;X;X4X! @ ; +.<X<X<X<X<X<X<X<X<X<X<X<X<X<X<X<X<X<X",
"<X<X<X<X<X<X<X<X<X<X<X<X<X<X<X<X<X<X}.R | +X%XOX<X<X<X<XO.R | ;X<X<X<X<X<X<X<X<X<X<X<X<X<X<X<X<X<X<X",
"<X<X<X<X<X<X<X<X<X<X<X<X<X<X<X<X<X<X<X<X1XOXOX1X<X<X<X<X<X<X<X<X<X<X<X<X<X<X<X<X<X<X<X<X<X<X<X<X<X<X",
"<X<X<X<X<X<X<X<X<X<X<X<X<X<X<X<X<X<X<X<X<X<X<X<X<X<X<X<X<X;X X;X<X<X<X<X<X<X<X<X<X<X<X<X<X<X<X<X<X<X",
"<X<X<X<X<X<X<X<X<X<X<X<X<X<X<X<X<X<X<X<X<X<X<X<X<X<X<X<X;X|.}.}.;X<X<X<X<X<X<X<X<X<X<X<X<X<X<X<X<X<X",
"<X<X<X<X<X<X<X<X<X<X<X<X<X<X<X<X<X<X<X<X<X<X<X<X<X<X<X<X;X|.}.}.;X<X<X<X<X<X<X<X<X<X<X<X<X<X<X<X<X<X",
"<X<X<X<X<X<X<X<X<X<X<X<X<X<X<X<X<X<X<X<X<X<X<X<X<X<X<X<X<X;X X;X<X<X<X<X<X<X<X<X<X<X<X<X<X<X<X<X<X<X",
"<X<X<X<X<X<X<X<X<X<X<X<X<X<X<X<X<X<X<X<X<X<X<X<X<X<X<X<X<X<X<X<X<X<X<X<X<X<X<X<X<X<X<X<X<X<X<X<X<X<X",
"<X<X<X<X<X<X<X<X<X<X<X<X<X<X<X<X<X<X<X<X<X<X<X<X<XOXOX<X<X<X<X<X<X<X<X<X<X<X<X<X<X<X<X<X<X<X<X<X<X<X",
"<X<X<X<X<X<X<X<X<X<X<X<X<X<X<X<X<X<X<X<X<X<X<X<X1X%X&XOX<X<X<X<X<X<X<X<X<X<X<X<X<X<X<X<X<X<X<X<X<X<X",
"<X<X<X<X<X<X<X<X<X<X<X<X<X<X1XOX3X<X<X<X<X<X<X<X1X%X=X+X1XOX3X<X<X<X<X<X<X<X<X<X<X<X<X<X<X<X<X<X<X<X"
};
