/* XPM */
static char *_31e68c29c6e49a1ef768c2194d64ee2tu6Tz3c3JvWPVoGD[] = {
/* columns rows colors chars-per-pixel */
"50 50 221 2 ",
"   c #120B07",
".  c #14160E",
"X  c #240E08",
"o  c #28180C",
"O  c #330F11",
"+  c #281819",
"@  c #22260F",
"#  c #312809",
"$  c #2B291D",
"%  c #34221B",
"&  c #261A25",
"*  c #192131",
"=  c #2A2E28",
"-  c #312723",
";  c #392A34",
":  c #363834",
">  c #521F1F",
",  c #53300F",
"<  c #4A3318",
"1  c #573919",
"2  c #66370B",
"3  c #683A19",
"4  c #532D28",
"5  c #4C382B",
"6  c #593927",
"7  c #432B31",
"8  c #502D30",
"9  c #5B3335",
"0  c #543539",
"q  c #662C34",
"w  c #643638",
"e  c #7A3A3D",
"r  c #2F4B33",
"t  c #384E39",
"y  c #4E461F",
"u  c #73580D",
"i  c #69451A",
"p  c #79481D",
"a  c #4B4B31",
"s  c #55573C",
"d  c #67432D",
"f  c #69412A",
"g  c #764528",
"h  c #7D522C",
"j  c #644336",
"k  c #77473C",
"l  c #755833",
"z  c #45613E",
"x  c #7D6222",
"c  c #63733A",
"v  c #3F3A4B",
"b  c #523743",
"n  c #783C43",
"m  c #3A484B",
"M  c #3D5E44",
"N  c #3C6546",
"B  c #534945",
"V  c #564A48",
"C  c #495647",
"Z  c #565349",
"A  c #574A59",
"S  c #4C5257",
"D  c #575559",
"F  c #664848",
"G  c #76454A",
"H  c #6C5148",
"J  c #74524A",
"K  c #684C51",
"L  c #794E55",
"P  c #63535E",
"I  c #7B5255",
"U  c #476848",
"Y  c #576946",
"T  c #54744E",
"R  c #586757",
"E  c #59765A",
"W  c #676443",
"Q  c #67675B",
"!  c #77675B",
"~  c #6B765E",
"^  c #475578",
"/  c #675B65",
"(  c #53636D",
")  c #587B65",
"_  c #6E6F6E",
"`  c #7B6B63",
"'  c #787A76",
"]  c #95373C",
"[  c #875112",
"{  c #936C13",
"}  c #AA7B1E",
"|  c #8D5526",
" . c #82542C",
".. c #86513B",
"X. c #B64E3F",
"o. c #A9553C",
"O. c #B1523E",
"+. c #937135",
"@. c #A47329",
"#. c #883B43",
"$. c #864745",
"%. c #964A4B",
"&. c #9D4D4C",
"*. c #9B524D",
"=. c #99574E",
"-. c #8D4B54",
";. c #9B4E53",
":. c #8A5656",
">. c #975353",
",. c #B34F43",
"<. c #B94B47",
"1. c #B34E4C",
"2. c #AD5445",
"3. c #A1524D",
"4. c #AD514C",
"5. c #B45445",
"6. c #AB4F51",
"7. c #B44B52",
"8. c #BB4850",
"9. c #AF5155",
"0. c #A95655",
"q. c #B4565A",
"w. c #8D764F",
"e. c #99655A",
"r. c #B67757",
"t. c #985765",
"y. c #AD5F64",
"u. c #856665",
"i. c #937276",
"p. c #B27265",
"a. c #A77774",
"s. c #B47A7C",
"d. c #CD5549",
"f. c #CC5E57",
"g. c #E15F5C",
"h. c #CC6053",
"j. c #C9655A",
"k. c #DE765C",
"l. c #E96B55",
"z. c #EC6E5D",
"x. c #F2695C",
"c. c #E77356",
"v. c #E5725C",
"b. c #EA715B",
"n. c #C96A66",
"m. c #CA716C",
"M. c #DD7465",
"N. c #D4766B",
"B. c #E56F61",
"V. c #EA6E62",
"C. c #E46B6A",
"Z. c #E96E6A",
"A. c #F26B60",
"S. c #E57163",
"D. c #E47267",
"F. c #E57771",
"G. c #4B8657",
"H. c #47855A",
"J. c #4A8B5E",
"K. c #59865B",
"L. c #54935C",
"P. c #56985F",
"I. c #5C9C5D",
"U. c #67975A",
"Y. c #629E5C",
"T. c #6AA154",
"R. c #63A15B",
"E. c #6CA759",
"W. c #6EA858",
"Q. c #72AB57",
"!. c #4D8D61",
"~. c #548564",
"^. c #578A64",
"/. c #5B8F6B",
"(. c #4D9262",
"). c #529463",
"_. c #5B9665",
"`. c #569168",
"'. c #648A68",
"]. c #649A64",
"[. c #B48A0F",
"{. c #B99705",
"}. c #AE9024",
"|. c #C39B0A",
" X c #B6895B",
".X c #928672",
"XX c #B48D6D",
"oX c #CD8B75",
"OX c #CB9A7A",
"+X c #CDAB6E",
"@X c #D9A56E",
"#X c #CEA477",
"$X c #968693",
"%X c #B59283",
"&X c #BC9798",
"*X c #A1A283",
"=X c #9895A4",
"-X c #A298A8",
";X c #B29EAD",
":X c #AAABB7",
">X c #C58684",
",X c #CC8D92",
"<X c #C79997",
"1X c #EE9E9D",
"2X c #D4A990",
"3X c #C1ADA7",
"4X c #D0B1B2",
"5X c #E6B8A7",
"6X c #E9BDB5",
"7X c #E9C79B",
"8X c #EACBB5",
"9X c #F6CABD",
"0X c #B7B3C4",
"qX c #D3C6D7",
"wX c #E7CCC8",
"eX c #F5CDCA",
"rX c #EBD3C2",
"tX c #D2D3E6",
"yX c #E8D7EB",
"uX c #F2DFF3",
"iX c #F0E7FB",
/* pixels */
"(.(.(.(.(.(.(.(.(.(.(.(.(.(.(.(.(.J.H.J.(.(.(.(.(.(.(.(.(.(.(.(.(.(.(.(.(.(.(.(.(.(.(.(.(.(.(.(.(.).",
"(.(.(.(.(.(.(.(.(.(.(.(.(.(.(.(.(.(.(.(.(.(.(.(.(.(.(.(.(.(.(.(.(.(.(.(.(.(.(.(.(.(.(.(.(.(.(.(.(.).",
"(.(.(.(.(.(.(.(.(.(.(.(.(.(.(.(.(.(.(.(.(.(.).).(.(.(.(.(.(.(.(.(.(.(.(.(.(.(.(.(.(.(.(.(.(.(.(.(.).",
"(.(.(.(.(.(.(.(.(.(.(.(.(.(.(.(.(.(.(.(.(.).R.Y.).(.(.(.(.(.(.(.(.(.(.(.(.(.(.(.(.(.(.(.(.(.(.(.(.).",
"(.(.(.(.(.(.(.(.(.(.(.(.(.(.(.(.(.(.).).).I.Q.R.).(.(.(.(.(.(.(.).).(.(.(.(.(.(.(.(.(.(.(.(.(.(.(.).",
"(.(.(.(.(.(.(.(.(.(.(.(.(.(.(.(.(.(.I.R.I.I.E.I.(.(.(.(.(.(.(.(.I.Y.).(.(.(.(.(.(.(.(.(.(.(.(.(.(.).",
"(.(.(.(.(.(.(.(.(.(.(.(.(.(.(.(.(.(.L.U.U.U.]././././././.`.).P.I.R.).(.(.(.(.(.(.(.(.(.(.(.(.(.(.).",
"(.(.(.(.(.(.(.(.(.(.(.(.(.(.(.(.(.(.(.^.Z B B B B V B B B R ].R.R.R.).(.(.(.(.(.(.(.(.(.(.(.(.(.(.).",
"(.(.(.(.(.(.(.(.(.(.(.(.(.(.(.(.`.E R ! :.>.*.*.=.*.*.*.$.H ~ ].I.I.).(.(.(.(.(.(.(.(.(.(.(.(.(.(.).",
"(.(.(.(.(.(.(.(.(.(.(.(.(.(.(.`.'.F w $.m.D.V.V.M.M.B.B.j.=.j ~ _.(.(.(.(.(.(.(.(.(.(.(.(.(.(.(.(.).",
"(.(.(.(.(.(.(.(.(.(.(.(.(.(.(.) K :.y.n.M.V.x.x.v.k.c.z.B.n.>.J R `.(.(.(.(.(.(.(.(.(.(.(.(.(.(.(.).",
"(.(.(.(.(.(.(.(.(.(.(.(.(.(.(.E w y.m.N.M.v.z.z.S.k.k.S.Z.C.n.G Z `.(.(.(.(.(.(.(.(.(.(.(.(.(.(.(.).",
"(.(.(.(.(.(.(.(.(.(.(.(.(.(.`.Q n m.D.S.v.b.z.z.S.v.v.V.Z.Z.Z.t./ /.`.(.(.(.(.(.(.(.(.(.(.(.(.(.(.).",
"(.(.(.(.(.(.(.(.(.(.(.(.(.`.R K 0.C.V.b.c.v.z.V.V.b.b.b.D.C.F.,X$XD ~.(.(.(.(.(.(.(.(.(.(.(.(.(.(.).",
"(.(.(.(.(.(.(.(.(.(.(.(.(.`.S F q.C.A.l.c.v.b.V.V.z.b.b.S.F.1X<Xi.D R ~.(.(.(.(.(.(.(.(.(.(.(.(.(.).",
"(.(.(.(.(.(.(.(.(.(.(.(.(.`.Z G q.g.x.l.v.S.D.D.V.V.z.z.k.oXeX<Xu.' ( ) `.(.(.(.(.(.(.(.(.(.(.(.(.).",
"(.(.(.(.(.(.(.(.(.(.(.(.(.`.Z n 6.d.l.b.v.M.D.D.D.D.V.S.h.r.eX&Xa.qXtX:XR !.(.(.(.(.(.(.(.(.(.(.(.).",
"(.(.(.(.(.(.(.(.(.(.(.(.(.`.Z n 4.<.d.h.h.j.f.f.h.h.f.h.5.0.,X&X&XuXiX0XS ~.(.(.(.(.(.(.(.(.(.(.(.).",
"I.I.(.(.(.(.(.(.(.(.(.(.(.`.Z n 4.,.X.X.,.1.8.<.,.O.,.,.,.9.9.s.4XuXiX0XS ~.(.(.(.(.(.(.(.(.(.(.(.).",
"R.I.).(.(.(.(.(.(.(.(.(.(.`.Z e 3.2.,.2.4.1.7.<.O.o.2.4.1.8.7.-.i.yXqX=XS ~.(.(.(.(.(.(.(.(.(.(.I.Y.",
"R.R.I.P.(.(.(.(.(.(.(.(.(.`.Z w $.3.4.4.4.1.7.1.2.2.4.6.9.7.%.t.$XqX-X' ) !.(.(.(.(.(.(.(.(.(.(.I.R.",
"Y.R.R.I.(.(.(.(.(.(.(.(.(.`.Z 4 w -.;.&.&.;.;.;.%.&.&.-.>.-.n i.;X-X_ E ).(.(.(.(.(.(.(.(.(.(.(.I.R.",
").P.I.I.(.(.(.(.(.(.(.(.(.).s d k w 9 9 9 0 b 0 9 9 9 0 0 0 0 b A A ~.`.(.(.(.(.(.(.(.(.(.(.(.(.).).",
"(.(.).(.(.(.(.(.(.(.(.(.(.(.K.W f f f d d j 6 4 w 9 8 0 K P ; ; b B ~.(.(.(.(.(.(.(.(.(.(.(.(.(.(.).",
"(.(.(.(.(.(.(.(.(.).).(.(.(.(.T < g h  .h h p i ..k 6 G i.$X& 7 L J ^.(.(.(.(.).).(.(.(.(.(.(.(.(.).",
"(.(.(.(.(.(.(.(.).I.I.).(.(.(.U o < d l h 3 h  XOXe.3 a.4X4X- F s.J K.(.(.(.).Y.I.).(.(.(.(.(.(.(.).",
"(.(.(.(.(.(.(.(.P.R.R.I.(.(.(.H.U 5 f .. .2 h #X2XXXw.2X9XwXi.%X2Xa.'.(.(.).I.R.Y.P.(.(.(.(.(.(.(.).",
"(.(.(.(.(.(.(.(.).I.I.).(.(.(.(.`.Y d g g 2  .oXOX+X+X7X8XrXrX8X5X*X_.(.(.(.).I.I.(.(.(.(.(.(.(.(.).",
"(.(.(.(.(.(.(.(.(.(.(.(.(.(.(.(.(.`.z X X 6 g g  X@X@X2X5X9X9X%Xw.].(.(.(.(.(.(.(.(.(.(.(.(.(.(.(.).",
"(.(.(.(.(.(.(.(.(.(.(.(.(.(.(.(.(.(.z # y y 6 1  .r.OXp.p.oX>X.XK.(.(.(.(.(.(.(.(.(.(.(.(.(.(.(.(.).",
"(.(.(.(.(.(.(.(.(.(.(.(.(.(.(.(.(.`.c u }.x 1 , 2 +.<Xe.$.#.I '.(.(.(.(.(.(.(.(.(.(.(.(.(.(.(.(.(.).",
"I.).(.(.(.(.(.(.(.(.(.(.(.(.(.(.(.Y { [.|.[.@.[ @. X3X;Xi.L '.`.(.(.(.(.(.(.(.(.(.(.(.(.(.(.(.(.(.).",
"W.R.P.I.I.).(.(.(.(.(.(.(.(.(.(.!.t u [.{.|.} 2  .w.' _ L L ~ !.(.(.(.(.(.(.(.(.(.(.(.(.(.(.(.(.(.).",
"R.W.W.W.R.).(.(.(.(.(.(.(.(.(.(.!.$ , { [.}. .X - a s - 8 G B ) ).).(.(.(.(.(.(.(.(.(.).I.I.).(.(.).",
").I.T.Y.L.(.(.(.(.(.(.(.(.(.(.(.!.$ u } { | i   = ` 3X3X! + : K.I.R.).(.(.(.(.(.(.(.(.).R.W.I.P.I._.",
"J.G.G.G.J.(.(.(.(.(.(.(.(.(.(.(.J.$ i @.@.3 > + : u.5X6X`   : K.R.R.).(.(.(.(.(.(.(.(.(.P.R.W.W.E.].",
"(.H.H.J.(.(.(.(.(.(.(.(.(.(.(.(.!.t 5 l +.< + v m Q XXXXH . C U.I.I.).(.(.(.(.(.(.(.(.(.(.L.Y.T.L.).",
"(.(.(.(.(.(.(.(.(.(.(.(.(.(.(.(.(.!.M @ @ . * ^ ^ m $ % $ t /._.).(.(.(.(.(.(.(.(.(.(.(.(.H.G.G.H.`.",
"(.(.(.(.(.(.(.(.(.(.(.(.(.(.(.(.(.(.H.N N = & A / F > > % r !.(.(.(.(.(.(.(.(.(.(.(.(.(.(.J.H.H.(.).",
"(.(.(.(.(.(.(.(.(.(.(.(.(.(.(.(.(.(.(.(._.U 7 q e ] ] #.0 r !.(.(.(.(.(.(.(.(.(.(.(.(.(.(.(.(.(.(.).",
"(.(.(.(.(.(.(.(.(.(.(.(.(.(.(.(.(.(.(.(.).Y.E & X O O O C !.(.(.(.(.(.(.(.(.(.(.(.(.(.(.(.(.(.(.(.).",
"(.(.(.(.(.(.(.(.(.(.(.(.(.(.(.(.(.(.(.(.(.).L.N M M M N H.(.(.(.(.(.(.(.(.(.(.(.(.(.(.(.(.(.(.(.(.).",
"(.(.(.(.(.(.(.(.(.(.(.(.(.(.(.(.(.(.(.(.(.(.(.(.(.).(.(.(.J.H.J.(.(.(.(.(.(.(.(.(.(.(.(.(.(.(.(.(.).",
"(.(.(.(.(.(.(.(.(.(.(.(.(.(.(.(.(.(.(.(.(.(.(.(.(.(.(.(.!.H.H.H.!.(.(.(.(.(.(.(.(.(.(.(.(.(.(.(.(.).",
"(.(.(.(.(.(.(.(.(.(.(.(.(.(.(.(.(.(.(.(.(.(.(.(.(.(.(.(.(.H.H.H.(.(.(.(.(.(.(.(.(.(.(.(.(.(.(.(.(.).",
"(.(.(.(.(.(.(.(.(.(.(.(.(.(.(.(.(.(.(.(.(.(.(.(.(.(.(.(.(.(.J.(.(.(.(.(.(.(.(.(.(.(.(.(.(.(.(.(.(.).",
"(.(.(.(.(.(.(.(.(.(.(.(.(.(.(.(.(.(.(.(.(.(.(.(.(.(.(.(.(.(.(.(.(.(.(.(.(.(.(.(.(.(.(.(.(.(.(.(.(.).",
"(.(.(.(.(.(.(.(.(.(.(.(.(.(.(.(.(.(.(.(.(.(.(.(.).I.I.).(.(.(.(.(.(.(.(.(.(.(.(.(.(.(.(.(.(.(.(.(.).",
"(.(.(.(.(.(.(.(.(.(.(.(.(.(.(.).(.(.(.(.(.(.(.(.).R.W.I.(.).(.(.(.(.(.(.(.(.(.(.(.(.(.(.(.(.(.(.(.).",
"(.(.(.(.(.(.(.(.(.(.(.(.(.(.).I.P.(.(.(.(.(.(.(.).R.Q.I.).I.P.(.(.(.(.(.(.(.(.(.(.(.(.(.(.(.(.(.(.)."
};
