/* XPM */
static char *b29ccca47e07473e9d21c0b67cf083051bAZ2iBF8crumNzD[] = {
/* columns rows colors chars-per-pixel */
"50 50 227 2 ",
"   c #131117",
".  c #270C0A",
"X  c #261209",
"o  c #36160B",
"O  c #2A1B16",
"+  c #3D1A16",
"@  c #27240C",
"#  c #282718",
"$  c #363814",
"%  c #1B1D20",
"&  c #2D1925",
"*  c #1A2920",
"=  c #33282E",
"-  c #253226",
";  c #2B3324",
":  c #353426",
">  c #4D1919",
",  c #56141E",
"<  c #52320B",
"1  c #472D18",
"2  c #59371A",
"3  c #6B3C1A",
"4  c #713C17",
"5  c #472C2C",
"6  c #562F26",
"7  c #423320",
"8  c #55352C",
"9  c #572E35",
"0  c #4C3435",
"q  c #533334",
"w  c #593638",
"e  c #663A26",
"r  c #663739",
"t  c #6B3E3E",
"y  c #733A3D",
"u  c #29452D",
"i  c #364932",
"p  c #474014",
"a  c #6F4F11",
"s  c #6C431E",
"d  c #714519",
"f  c #4E4828",
"g  c #484432",
"h  c #594538",
"j  c #6A4729",
"k  c #794523",
"l  c #7B5528",
"z  c #674338",
"x  c #73463C",
"c  c #7B5536",
"v  c #3B3E46",
"b  c #4B2F42",
"n  c #4C3945",
"m  c #573942",
"M  c #673B46",
"N  c #733C42",
"B  c #7D3D45",
"V  c #375140",
"C  c #3B6D49",
"Z  c #3B4762",
"A  c #4B4A49",
"S  c #4B584D",
"D  c #575846",
"F  c #55534C",
"G  c #4A5958",
"H  c #585658",
"J  c #654249",
"K  c #714449",
"L  c #6D584D",
"P  c #764B53",
"I  c #4A684A",
"U  c #48714D",
"Y  c #58704C",
"T  c #486552",
"R  c #5A6A53",
"E  c #556859",
"W  c #497C56",
"Q  c #57795A",
"!  c #68675A",
"~  c #6A7052",
"^  c #4F546D",
"/  c #795F6A",
"(  c #5E6561",
")  c #5A7664",
"_  c #766565",
"`  c #786C76",
"'  c #6B7A77",
"]  c #84511C",
"[  c #8C6905",
"{  c #9A641D",
"}  c #A26B18",
"|  c #AB7D1E",
" . c #87512B",
".. c #825134",
"X. c #AE523F",
"o. c #B3513D",
"O. c #88712D",
"+. c #A47A25",
"@. c #A87B32",
"#. c #913943",
"$. c #87484B",
"%. c #914849",
"&. c #955848",
"*. c #8B4953",
"=. c #924751",
"-. c #975553",
";. c #AA494C",
":. c #B54D47",
">. c #AD5244",
",. c #A5534E",
"<. c #AD524C",
"1. c #B15144",
"2. c #B8574A",
"3. c #AA4958",
"4. c #B44C51",
"5. c #BB4852",
"6. c #A65451",
"7. c #AD535B",
"8. c #B55353",
"9. c #9F774A",
"0. c #B37F5F",
"q. c #915E68",
"w. c #956F6A",
"e. c #957878",
"r. c #A96B68",
"t. c #B46867",
"y. c #B37765",
"u. c #A97979",
"i. c #C25648",
"p. c #D0544E",
"a. c #C55456",
"s. c #C86858",
"d. c #D46C5C",
"f. c #DF735F",
"g. c #EB6255",
"h. c #E56E5B",
"j. c #EB6E5D",
"k. c #F16D5B",
"l. c #E67357",
"z. c #E5735C",
"x. c #E9715D",
"c. c #C86B64",
"v. c #D86A67",
"b. c #DE6F66",
"n. c #CC7468",
"m. c #D97565",
"M. c #D47370",
"N. c #E56C67",
"B. c #EA6E63",
"V. c #F26B61",
"C. c #E57263",
"Z. c #E67267",
"A. c #E67574",
"S. c #4D8755",
"D. c #47855A",
"F. c #4A8B5E",
"G. c #528759",
"H. c #54955E",
"J. c #5A965C",
"K. c #56995F",
"L. c #5B9C5D",
"P. c #649D56",
"I. c #619D5C",
"U. c #6BA154",
"Y. c #63A15B",
"T. c #6CA65A",
"R. c #6EA858",
"E. c #71AB57",
"W. c #4D8F61",
"Q. c #598567",
"!. c #528D64",
"~. c #5B8B65",
"^. c #4D9262",
"/. c #529463",
"(. c #59926A",
"). c #758867",
"_. c #669864",
"`. c #63A060",
"'. c #BE9A06",
"]. c #B38D10",
"[. c #9D872D",
"{. c #B1872F",
"}. c #C49B0B",
"|. c #AE845E",
" X c #8D886F",
".X c #AA837D",
"XX c #B68A79",
"oX c #8EA07A",
"OX c #C78C72",
"+X c #C69878",
"@X c #CFA86E",
"#X c #DAA36B",
"$X c #D3A778",
"%X c #827E88",
"&X c #AD7E8A",
"*X c #7A838B",
"=X c #8C8A96",
"-X c #968493",
";X c #B48F8C",
":X c #B7A18C",
">X c #B9A699",
",X c #9692A3",
"<X c #AC95A6",
"1X c #BBA4AB",
"2X c #C49584",
"3X c #D2908B",
"4X c #EA9F99",
"5X c #D9AF87",
"6X c #D7B294",
"7X c #CA9AA3",
"8X c #C8A9A6",
"9X c #DBABA2",
"0X c #C0B0BE",
"qX c #E9BDAF",
"wX c #EABAB4",
"eX c #E8C8AC",
"rX c #F5C7B9",
"tX c #EAD1BE",
"yX c #BCAFC1",
"uX c #CEBACA",
"iX c #D6C1CC",
"pX c #E9C9C8",
"aX c #EED1CC",
"sX c #DED6E6",
"dX c #EAD7E9",
"fX c #E7E5F6",
"gX c #F2E6F9",
/* pixels */
"^.^.^.^.^.^.^.^.^.^.^.^.^.^.^.^.^.F.D.F.^.^.^.^.^.^.^.^.^.^.^.^.^.^.^.^.^.^.^.^.^.^.^.^.^.^.^.^.^.^.",
"^.^.^.^.^.^.^.^.^.^.^.^.^.^.^.^.^.^.^.^.^.^.^.^.^.^.^.^.^.^.^.^.^.^.^.^.^.^.^.^.^.^.^.^.^.^.^.^.^.^.",
"^.^.^.^.^.^.^.^.^.^.^.^.^.^.^.^.^.^.^.^.^.^././.^.^.^.^.^.^.^.^.^.^.^.^.^.^.^.^.^.^.^.^.^.^.^.^.^.^.",
"^.^.^.^.^.^.^.^.^.^.^.^.^.^.^.^.^.^.^.^.^./.Y.Y./.^.^.^.^.^.^.^.^.^.^.^.^.^.^.^.^.^.^.^.^.^.^.^.^.^.",
"^.^.^.^.^.^.^.^.^.^.^.^.^.^.^.^.^.^./.H./.L.E.Y./.^.^.^.^.^.^.^././.^.^.^.^.^.^.^.^.^.^.^.^.^.^.^.^.",
"^.^.^.^.^.^.^.^.^.^.^.^.^.^.^.^.^.^.K.T._.I.T.`././././././.^.^.K.Y./.^.^.^.^.^.^.^.^.^.^.^.^.^.^.^.",
"^.^.^.^.^.^.^.^.^.^.^.^.^.^.^.^.^.^.H._.R R R R E E E E E ) /.K.L.Y./.^.^.^.^.^.^.^.^.^.^.^.^.^.^.^.",
"^.^.^.^.^.^.^.^.^.^.^.^.^.^.^.^.^.^.~.! w z z t z z t t t L )._._.Y./.^.^.^.^.^.^.^.^.^.^.^.^.^.^.^.",
"^.^.^.^.^.^.^.^.^.^.^.^.^.^.^.^.^.(.H K &.s.d.d.c.c.v.v.n.t.x h ! _./.^.^.^.^.^.^.^.^.^.^.^.^.^.^.^.",
"^.^.^.^.^.^.^.^.^.^.^.^.^.^.^.^.~.! L -.s.C.j.z.C.C.V.V.Z.n.6.$.P ! !.^.^.^.^.^.^.^.^.^.^.^.^.^.^.^.",
"^.^.^.^.^.^.^.^.^.^.^.^.^.^.^.^.) M -.c.N.B.z.z.C.B.k.k.C.m.n.t.-.m Q ^.^.^.^.^.^.^.^.^.^.^.^.^.^.^.",
"^.^.^.^.^.^.^.^.^.^.^.^.^.^.^./.) M c.N.N.B.z.z.z.B.j.k.x.f.m.M.t.r Q ^.^.^.^.^.^.^.^.^.^.^.^.^.^.^.",
"^.^.^.^.^.^.^.^.^.^.^.^.^.^./.Q.' e.v.B.N.C.z.z.z.B.B.j.l.z.z.Z.v.$.! Q.^.^.^.^.^.^.^.^.^.^.^.^.^.^.",
"^.^.^.^.^.^.^.^.^.^.^.^.^./.(.H ` 7X3XA.Z.C.x.z.B.B.B.x.l.l.j.B.v.7.J S /.^.^.^.^.^.^.^.^.^.^.^.^.^.",
"^.^.^.^.^.^.^.^.^.^.^.^./.Q.G H / u.wX4XZ.h.x.j.B.B.Z.C.z.l.k.V.N.7.M S /.^.^.^.^.^.^.^.^.^.^.^.^.^.",
"^.^.^.^.^.^.^.^.^.^.^./.Q.*X*X,Xe.r.aX9Xs.h.j.B.B.Z.C.C.z.l.k.g.p.8.N S /.^.^.^.^.^.^.^.^.^.^.^.^.^.",
"^.^.^.^.^.^.^.^.^.^.^.(.G =XfXfX8Xu.pX3X2.d.h.N.N.b.b.b.m.f.h.p.i.;.N F /.^.^.^.^.^.^.^.^.^.^.^.^.^.",
"^.^.^.^.^.^.^.^.^.^.^.(.G =XfXgXiX;X&Xt.>.2.i.i.i.i.a.a.8.2.i.i.:.<.N F /.^.^.^.^.^.^.^.^.^.^.^.^.^.",
"L.K.^.^.^.^.^.^.^.^.^.(.G %XsXgXuX&X7.4.:.1.>.X.o.1.:.5.4.:.1.o.1.6.y F /.^.^.^.^.^.^.^.^.^.^.^.^.^.",
"Y.L./.^.^.^.^.^.^.^.^./.G ` yXdX<XP 3.5.4.<.>.>.X.>.:.4.4.<.1.1.<.-.t F /.^.^.^.^.^.^.^.^.^.^.^.K.L.",
"Y.Y.L.K.^.^.^.^.^.^.^.^.!.' ` 0XyX&X=.;.7.6.,.<.>.>.<.8.8.<.<.<.-.N w F /.^.^.^.^.^.^.^.^.^.^.^.L.Y.",
"I.Y.Y.L.^.^.^.^.^.^.^.^.^.Q.( -X,X-XK B *.$.$.%.%.%.=.*.=.%.%.=.$.r 6 D /.^.^.^.^.^.^.^.^.^.^.^.L.I.",
"/.K.L.K.^.^.^.^.^.^.^.^.^.^.(.H n n b 0 0 0 q q q 9 9 b 0 q 9 9 w x j D /.^.^.^.^.^.^.^.^.^.^.^././.",
"^.^./.^.^.^.^.^.^.^.^.^.^.^./.H m n & A _ J q 6 t 8 6 z z z j j j j ~ G.^.^.^.^.^.^.^.^.^.^.^.^.^.^.",
"^.^.^.^.^.^.^.^.^././.^.^.^./.! P P   H <Xq.x e &...k k l ..l l j 1 Q ^.^.^.^././.^.^.^.^.^.^.^.^.^.",
"^.^.^.^.^.^.^.^./.L.L./.^.^./.L r.u.O ` aX7X-.e XX+X|.s s c c j 1 O U ^.^.^./.L.L./.^.^.^.^.^.^.^.^.",
"^.^.^.^.^.^.^.^.K.Y.Y.K.^.^./. X2X9Xe.>XaXqXXX9.+X5XOX3 d  ...e g I F.^.^.^.L.Y.Y.K.^.^.^.^.^.^.^.^.",
"^.^.^.^.^.^.^.^.^.K.L./.^.^./.oX6XeXtXaXtXeX5X@X$X+X0.4 4 k k z R /.^.^.^.^.H.L.K.^.^.^.^.^.^.^.^.^.",
"^.^.^.^.^.^.^.^.^.^.^.^.^.^.^._. Xw.qXrXrX6X$X#X#X@.j j 1 . X I /.^.^.^.^.^.^.^.^.^.^.^.^.^.^.^.^.^.",
"^.^.^.^.^.^.^.^.^.^.^.^.^.^.^.^.~.).;X3XOXy.OX+X9.j 2 h f p @ U ^.^.^.^.^.^.^.^.^.^.^.^.^.^.^.^.^.^.",
"^.^.^.^.^.^.^.^.^.^.^.^.^.^.^.^.^._._ $.#.$.u.2Xd < 2 2 O.[.a ~ /.^.^.^.^.^.^.^.^.^.^.^.^.^.^.^.^.^.",
"K./.^.^.^.^.^.^.^.^.^.^.^.^.^.^.^.^.~._ *.;X1X>X{.{ ] +.].'.].O.Y /.^.^.^.^.^.^.^.^.^.^.^.^.^.^.^.^.",
"R.Y.K.K.K./.^.^.^.^.^.^.^.^.^.^.^.W.Q._ P _ %X XO.l d {.}.'.].a g !.^.^.^.^.^.^.^.^.^.^.^.^.^.^.^.^.",
"I.R.R.R.Y./.^.^.^.^.^.^.^.^.^.^.^./.H M K O : h f # o +.].].[ < : /./.^.^.^.^.^.^.^.^./.K.K./.^.^.^.",
"/.J.U.P.H.^.^.^.^.^.^.^.^.^.^.^.^./.S = 5  X:X;XA % X l { } | 2 : I./.^.^.^.^.^.^.^.^./.Y.R.L.K.L.K.",
"W.S.S.G.F.^.^.^.^.^.^.^.^.^.^.^.^./.S O O 8XrX8XF - O 2 ] } @.2 : I.H.^.^.^.^.^.^.^.^.^./.Y.R.R.T.L.",
"^.F.D.F.^.^.^.^.^.^.^.^.^.^.^.^.^./.T # O .X3XXXA v = . j [.c 7 i J./.^.^.^.^.^.^.^.^.^.^.H.P.U.J.^.",
"^.^.^.^.^.^.^.^.^.^.^.^.^.^.^.^.^.^.!.I ; 0 8 g G ^ Z   @ $ # I G.^.^.^.^.^.^.^.^.^.^.^.^.F.S.G.F.^.",
"^.^.^.^.^.^.^.^.^.^.^.^.^.^.^.^.^.^.^.W ; O o + H ^ ^   * u u W ^.^.^.^.^.^.^.^.^.^.^.^.^.F.D.F.^.^.",
"^.^.^.^.^.^.^.^.^.^.^.^.^.^.^.^.^.^.^.C # y #.#.%.B 9 & T /./.^.^.^.^.^.^.^.^.^.^.^.^.^.^.^.^.^.^.^.",
"^.^.^.^.^.^.^.^.^.^.^.^.^.^.^.^.^.^.^.F.U 5 , , > + 5 E !.^.^.^.^.^.^.^.^.^.^.^.^.^.^.^.^.^.^.^.^.^.",
"^.^.^.^.^.^.^.^.^.^.^.^.^.^.^.^.^.^.^.^.W.i ; ; - - V /.^.^.^.^.^.^.^.^.^.^.^.^.^.^.^.^.^.^.^.^.^.^.",
"^.^.^.^.^.^.^.^.^.^.^.^.^.^.^.^.^.^.^.^.^.W.!.!.!.!./.^.^.F.F.F.^.^.^.^.^.^.^.^.^.^.^.^.^.^.^.^.^.^.",
"^.^.^.^.^.^.^.^.^.^.^.^.^.^.^.^.^.^.^.^.^.^.^.^.^.^.^.^.W.D.D.D.F.^.^.^.^.^.^.^.^.^.^.^.^.^.^.^.^.^.",
"^.^.^.^.^.^.^.^.^.^.^.^.^.^.^.^.^.^.^.^.^.^.^.^.^.^.^.^.^.F.D.F.^.^.^.^.^.^.^.^.^.^.^.^.^.^.^.^.^.^.",
"^.^.^.^.^.^.^.^.^.^.^.^.^.^.^.^.^.^.^.^.^.^.^.^.^.^.^.^.^.^.F.^.^.^.^.^.^.^.^.^.^.^.^.^.^.^.^.^.^.^.",
"^.^.^.^.^.^.^.^.^.^.^.^.^.^.^.^.^.^.^.^.^.^.^.^.^.^.^.^.^.^.^.^.^.^.^.^.^.^.^.^.^.^.^.^.^.^.^.^.^.^.",
"^.^.^.^.^.^.^.^.^.^.^.^.^.^.^.^.^.^.^.^.^.^.^.^./.L.L./.^.^.^.^.^.^.^.^.^.^.^.^.^.^.^.^.^.^.^.^.^.^.",
"^.^.^.^.^.^.^.^.^.^.^.^.^.^.^./.^.^.^.^.^.^.^.^./.Y.R.L.^./.^.^.^.^.^.^.^.^.^.^.^.^.^.^.^.^.^.^.^.^.",
"^.^.^.^.^.^.^.^.^.^.^.^.^.^./.L.K.^.^.^.^.^.^.^./.Y.E.L./.L.K.^.^.^.^.^.^.^.^.^.^.^.^.^.^.^.^.^.^.^."
};
