/* XPM */
static char *df57edc9f6f6407d9c5c810b930fd424vbtHsKVDNMAWnqfb[] = {
/* columns rows colors chars-per-pixel */
"50 50 234 2 ",
"   c #120E0D",
".  c #170C1A",
"X  c #0E191F",
"o  c #191818",
"O  c #230C10",
"+  c #28161C",
"@  c #321C1A",
"#  c #0B211D",
"$  c #1A2619",
"%  c #242119",
"&  c #39281E",
"*  c #20321E",
"=  c #0F1529",
"-  c #1E1E21",
";  c #23192C",
":  c #1D2A2A",
">  c #1E3234",
",  c #272727",
"<  c #382725",
"1  c #26372A",
"2  c #36372A",
"3  c #232931",
"4  c #293C33",
"5  c #3A3A38",
"6  c #412A1F",
"7  c #481D27",
"8  c #442825",
"9  c #522F2E",
"0  c #5A282B",
"q  c #463B39",
"w  c #563936",
"e  c #6E3036",
"r  c #643A35",
"t  c #3C481F",
"y  c #344836",
"u  c #38473B",
"i  c #66431D",
"p  c #484828",
"a  c #464533",
"s  c #584638",
"d  c #585234",
"f  c #6C5B2F",
"g  c #65493C",
"h  c #6B4B3A",
"j  c #74433B",
"k  c #716827",
"l  c #1E3344",
"z  c #323A48",
"x  c #502F44",
"c  c #4B3D45",
"v  c #573D46",
"b  c #6B3B41",
"n  c #394845",
"m  c #3B5A46",
"M  c #3E5F4C",
"N  c #365957",
"B  c #3D674D",
"V  c #386A54",
"C  c #2F5969",
"Z  c #484B48",
"A  c #584847",
"S  c #48564D",
"D  c #5C5246",
"F  c #5E4C53",
"G  c #664748",
"H  c #754648",
"J  c #6A5047",
"K  c #79564C",
"L  c #644E5B",
"P  c #6B5955",
"I  c #795955",
"U  c #4A6E46",
"Y  c #52684E",
"T  c #4B6C53",
"R  c #566855",
"E  c #477A55",
"W  c #4A7958",
"Q  c #577C5D",
"!  c #6F6751",
"~  c #7A6756",
"^  c #68795E",
"/  c #5F4463",
"(  c #4E5669",
")  c #71576F",
"_  c #5A6164",
"`  c #597D61",
"'  c #6E6A6A",
"]  c #787476",
"[  c #802E3A",
"{  c #87393C",
"}  c #A93B3A",
"|  c #8E5337",
" . c #AD502E",
".. c #B8473B",
"X. c #887825",
"o. c #96603B",
"O. c #AF7833",
"+. c #8B3D41",
"@. c #AE3A42",
"#. c #8B4C48",
"$. c #9A4D49",
"%. c #98524F",
"&. c #8C4652",
"*. c #964553",
"=. c #875F59",
"-. c #99555A",
";. c #A74C4B",
":. c #B54B44",
">. c #AA524C",
",. c #B45044",
"<. c #A84E50",
"1. c #B24C51",
"2. c #A85252",
"3. c #B95757",
"4. c #8C664A",
"5. c #886854",
"6. c #936859",
"7. c #99745A",
"8. c #B9645E",
"9. c #9A5A6E",
"0. c #A9596D",
"q. c #846C64",
"w. c #887767",
"e. c #936F72",
"r. c #AC6667",
"t. c #B86665",
"y. c #A37969",
"u. c #B17179",
"i. c #C35643",
"p. c #C95F58",
"a. c #CE614D",
"s. c #C46259",
"d. c #DA6F55",
"f. c #D6675B",
"g. c #EC6D5D",
"h. c #F1695E",
"j. c #E3735D",
"k. c #EF705F",
"l. c #CB5F67",
"z. c #C96A66",
"x. c #D87668",
"c. c #DD736C",
"v. c #D37974",
"b. c #EC6C64",
"n. c #E76D68",
"m. c #F16B63",
"M. c #E47262",
"N. c #E97365",
"B. c #E2746C",
"V. c #4C8755",
"C. c #468459",
"Z. c #4B855C",
"A. c #4B8B5E",
"S. c #56855B",
"D. c #55965D",
"F. c #56985F",
"G. c #5C9C5D",
"H. c #678C58",
"J. c #669F56",
"K. c #619E5D",
"L. c #6DA556",
"P. c #63A15C",
"I. c #6BA659",
"U. c #72AB57",
"Y. c #4C8561",
"T. c #4C8E61",
"R. c #5A8462",
"E. c #538C63",
"W. c #4D9262",
"Q. c #529564",
"!. c #5A9763",
"~. c #6C8E6F",
"^. c #689666",
"/. c #8B831C",
"(. c #B2812A",
"). c #C0872A",
"_. c #B5805F",
"`. c #9D8160",
"'. c #B9886A",
"]. c #B19172",
"[. c #C29674",
"{. c #D5A67C",
"}. c #837586",
"|. c #9B7D87",
" X c #A77586",
".X c #B17F9B",
"XX c #C57B8B",
"oX c #94848E",
"OX c #A38385",
"+X c #B69788",
"@X c #B48699",
"#X c #AB9192",
"$X c #B8A18D",
"%X c #949CA8",
"&X c #B095AF",
"*X c #B0A7BD",
"=X c #C78886",
"-X c #D78987",
";X c #CB9788",
":X c #CE9999",
">X c #E59A98",
",X c #CBA68A",
"<X c #C8A796",
"1X c #D5A89A",
"2X c #D2B491",
"3X c #D6B49B",
"4X c #E0BC9C",
"5X c #CC99A7",
"6X c #D8ACA2",
"7X c #D6ABB5",
"8X c #EFB6A4",
"9X c #E4B9A5",
"0X c #E2B6B7",
"qX c #E9C39E",
"wX c #DBC0A6",
"eX c #E8C6A5",
"rX c #F0CFB0",
"tX c #F7CBB9",
"yX c #F4D3B6",
"uX c #B8AECC",
"iX c #BAB8D9",
"pX c #B6B8E0",
"aX c #C7B5C9",
"sX c #D1B2C7",
"dX c #DBBFD0",
"fX c #BAC7E7",
"gX c #DAC3C2",
"hX c #C9CBDF",
"jX c #D3C3D8",
"kX c #F4D1CA",
"lX c #CACEE5",
"zX c #E8DDE9",
"xX c #E4DDF7",
"cX c #D9E5F4",
/* pixels */
"Q.Q.Q.Q.Q.Q.Q.Q.Q.Q.Q.Q.Q.Q.Q.Q.Q.W.A.T.Q.Q.Q.Q.Q.Q.Q.Q.Q.Q.Q.Q.Q.Q.Q.Q.Q.Q.Q.Q.Q.Q.Q.Q.Q.Q.Q.Q.Q.Q.",
"W.W.W.W.W.W.W.W.W.W.W.W.W.W.W.W.W.W.T.W.W.W.W.W.W.W.W.W.W.W.W.W.W.W.W.W.W.W.W.W.W.W.W.W.W.W.W.W.W.W.",
"W.W.W.W.W.W.W.W.W.W.W.W.W.W.W.W.W.W.W.W.W.W.W.Q.W.W.W.W.W.W.W.W.W.W.W.W.W.W.W.W.W.W.W.W.W.W.W.W.W.W.",
"W.W.W.W.W.W.W.W.W.W.W.W.W.W.W.W.W.W.W.W.W.Q.K.P.Q.W.W.W.W.W.W.W.W.W.W.W.W.W.W.W.W.W.W.W.W.W.W.W.W.W.",
"W.W.W.W.W.W.W.W.W.W.W.W.W.W.W.W.W.W.W.Q.E.S.H.H.S.Q Q Q Q S.E.W.Q.Q.W.W.W.W.W.W.W.W.W.W.W.W.W.W.W.W.",
"W.W.W.W.W.W.W.W.W.W.W.W.W.W.W.W.W.Q.!.^.P s s s r r r r w A R.Q.!.K.Q.W.W.W.W.W.W.W.W.W.W.W.W.W.W.W.",
"W.W.W.W.W.W.W.W.W.W.W.W.W.W.W.W.Q.Q D K r.r.8.8.s.8.s.8.t.r.I D R K.Q.W.W.W.W.W.W.W.W.W.W.W.W.W.W.W.",
"W.W.W.W.W.W.W.W.W.W.W.W.W.W.W.E.` J { ;.z.x.x.N.b.M.b.N.B.v.2.+.H ^ Q.W.W.W.W.W.W.W.W.W.W.W.W.W.W.W.",
"W.W.W.W.W.W.W.W.W.W.W.W.W.W.W.R.A #.3.n.M.j.j.g.g.j.g.b.M.N.n.f.<.b W W.W.W.W.W.W.W.W.W.W.W.W.W.W.W.",
"W.W.W.W.W.W.W.W.W.W.W.W.W.W.W.S.w %.f.b.g.j.k.h.m.N.N.m.b.M.j.f.1.b T W.W.W.W.W.W.W.W.W.W.W.W.W.W.W.",
"W.W.W.W.W.W.W.W.W.W.W.W.W.W.W.Q w t.B.m.m.b.m.b.b.b.n.m.b.j.j.j.z.H R W.W.W.W.W.W.W.W.W.W.W.W.W.W.W.",
"W.W.W.W.W.W.W.W.W.W.W.W.W.W.W.Q r z.B.M.g.b.n.x.c.B.c.n.b.x.j.j.x.j R Q.W.W.W.W.W.W.W.W.W.W.W.W.W.W.",
"W.W.W.W.W.W.W.W.W.W.W.W.W.W.` D e 3.M.j.M.c.v.;X=X-X-Xc.n.B.M.j.f.| A R T.W.W.W.W.W.W.W.W.W.W.W.W.W.",
"W.W.W.W.W.W.W.W.W.W.W.W.W.Q.S v %.,.a.j.x.v.=XtXkXkXkX>Xv.c.M.d.i.<.H Z E.W.W.W.W.W.W.W.W.W.W.W.W.W.",
"W.W.W.W.W.W.W.W.W.W.W.W.W.W.n 9 2.,.i.a.s.v.1XkX0X6XkX0X-Xl.p.i...1.b 2 A.W.W.W.W.W.W.W.W.W.W.W.W.W.",
"W.W.W.W.W.W.W.W.W.W.W.W.W.W.4 8 <.,.,.:.2.=X0XkX=Xu.gXgX5X0.1.,.:.1.r $ Z.W.W.W.W.W.W.W.W.W.W.W.W.W.",
"W.W.W.W.W.W.W.W.W.W.W.W.W.W.y 8 %.>.>.<.-.@X7X X9.9.e.&X&X9.-.2.>.2.r $ Z.W.W.W.W.W.W.W.W.W.W.W.W.W.",
"W.W.W.W.W.W.W.W.W.W.W.W.W.Q.y @ H %.t.XX@X*XuX&X.X@X#X*XuX@X@Xu.2.#.8 $ Z.W.W.W.W.W.W.W.W.W.W.W.W.W.",
"G.F.W.W.W.W.W.W.W.W.W.W.E.T % o 9 &.XX7XaXiXpXiXaXsXsXaXiXiXsX:X%.r @   S S.W.W.W.W.W.W.W.W.W.W.W.W.",
"P.G.Q.W.W.W.W.W.W.W.W.W.Z.2 8 9 w H e.&XuXfXfXfXhXjXdXjXhXiX&X XK r 9 6 < T W.W.W.W.W.W.W.W.W.W.F.G.",
"P.P.G.F.W.W.W.W.W.W.W.W.E % 4.y.J w w / *XhXxXcXcXzXzXzXlXuX) x 9 g 6.'.& m W.W.W.W.W.W.W.W.W.W.G.P.",
"P.P.P.G.W.W.W.W.W.W.W.W.E % 7.y.v A A F e.|.|.] ] ] ] oXoX}.) A s s 4.'.< m W.W.W.W.W.W.W.W.W.W.G.P.",
"Q.F.K.G.W.W.W.W.W.W.W.W.Z.u ~ I c P ! P =.K j h g G D F L ) ) I ~ s h 6.Z V W.W.W.W.W.W.W.W.W.W.Q.Q.",
"W.W.Q.Q.W.W.W.W.W.W.W.W.W.Q.u , q '.`.! +X5.g ].;X;X+XI L #Xq.5.].J < 2 Z.W.W.W.W.W.W.W.W.W.W.W.W.W.",
"W.W.W.W.W.W.W.W.W.W.W.W.W.W.Z.m & _.[.].wXq.8 <X8X8X9XJ Z aX$X].[.w y E W.W.W.W.W.W.W.W.W.W.W.W.W.W.",
"W.W.W.W.W.W.W.W.W.G.G.Q.W.W.W.W a 6.'.,XkX].g wXtXtXrX5.K kX9X].7.Z B W.W.W.Q.G.G.Q.W.W.W.W.W.W.W.W.",
"W.W.W.W.W.W.W.W.F.P.P.G.Q.W.W.W.E.2 h ,XrXrXeXrXyXyXyXeXqXtX6X7.& W W.W.W.W.G.P.P.F.W.W.W.W.W.W.W.W.",
"W.W.W.W.W.W.W.W.Q.G.G.Q.W.W.W.W.W.1 8 y.1XeXyXyXeX4XrXyXrX8X'.h o W W.W.W.W.Q.G.G.Q.W.W.W.W.W.W.W.W.",
"W.W.W.W.W.W.W.W.W.W.Q.W.W.W.W.W.Y.4 6 o.'.<X3XeX2X{.qX3X<X[.o.i % E T.W.W.W.W.Q.Q.W.W.W.W.W.W.W.W.W.",
"W.W.W.W.W.W.W.W.W.W.W.W.W.W.W.E > 1 f (.o.H P $X,X{.,Xq.G #.O.X.2 3 M W.W.W.W.W.W.W.W.W.W.W.W.W.W.W.",
"W.W.W.W.W.W.W.W.W.W.W.W.W.W.R.Y , 2 k ). .-.}.' 5.4.~ e.e.$.(./.t 3 Z ` Q.W.W.W.W.W.W.W.W.W.W.W.W.W.",
"!.Q.W.W.W.W.W.W.W.W.W.W.W.!.w.I D a k O. .t.@XL c q Z |.XX:.O.X.p Z P q.~.Q.W.W.W.W.W.W.W.W.W.W.W.W.",
"U.P.Q.Q.F.Q.W.W.W.W.W.W.E.^ <X6X+Xd d |  .:.r.@X' ( %X X1...| f p y.,X3Xe.` W.W.W.W.W.W.W.W.W.W.W.W.",
"P.U.I.I.I.F.W.W.W.W.W.W.R.P 3XtX1Xw % 8 { @.1.5X] ( uXu.} } 0 , < ].eXeX6.^ W.W.W.W.W.Q.F.F.W.W.W.W.",
"Q.G.L.L.D.W.W.W.W.W.W.W.E.^ $X9X:X8   o 0 [ &.OX_ Z oX9.{ e @ . . OX9X2Xw.R.W.W.W.W.W.Q.P.I.G.Q.G.F.",
"T.V.V.V.A.W.W.W.W.W.W.W.W.!.w.=.K + : Z + O O o X . ; + O O 5 z . G =.~ ^.W.W.W.W.W.W.W.F.I.I.I.I.K.",
"W.Z.C.A.W.W.W.W.W.W.W.W.W.W.S.^ Q : : N 3 3 4 > 3 3 l > 1 $ n z X Y S.S.W.W.W.W.W.W.W.W.W.D.J.L.G.Q.",
"W.W.W.W.W.W.W.W.W.W.W.W.W.W.W.W.T.1 - c v Z N N n z C C m a w < o C.W.W.W.W.W.W.W.W.W.W.W.A.V.V.A.W.",
"W.W.W.W.W.W.W.W.W.W.W.W.W.W.W.W.T.2 7 &.*.0 o # X = = = , H *.e % C.W.W.W.W.W.W.W.W.W.W.W.A.C.Z.T.W.",
"W.W.W.W.W.W.W.W.W.W.W.W.W.W.W.W.W.W s 0 0 d U U B M M M S 9 0 w T T.W.W.W.W.W.W.W.W.W.W.W.W.W.W.W.W.",
"W.W.W.W.W.W.W.W.W.W.W.W.W.W.W.W.W.W.E 1 * E P.G.Q.W.W.W.Z.1 , m Q.W.W.W.W.W.W.W.W.W.W.W.W.W.W.W.W.W.",
"W.W.W.W.W.W.W.W.W.W.W.W.W.W.W.W.W.W.W.A.A.D.F.Q.W.W.W.W.W.T.A.T.W.W.W.W.W.W.W.W.W.W.W.W.W.W.W.W.W.W.",
"W.W.W.W.W.W.W.W.W.W.W.W.W.W.W.W.W.W.W.W.W.W.W.W.W.W.W.W.W.T.A.A.W.W.W.W.W.W.W.W.W.W.W.W.W.W.W.W.W.W.",
"W.W.W.W.W.W.W.W.W.W.W.W.W.W.W.W.W.W.W.W.W.W.W.W.W.W.W.W.T.Z.C.C.T.W.W.W.W.W.W.W.W.W.W.W.W.W.W.W.W.W.",
"W.W.W.W.W.W.W.W.W.W.W.W.W.W.W.W.W.W.W.W.W.W.W.W.W.W.W.W.W.A.C.C.T.W.W.W.W.W.W.W.W.W.W.W.W.W.W.W.W.W.",
"W.W.W.W.W.W.W.W.W.W.W.W.W.W.W.W.W.W.W.W.W.W.W.W.W.W.W.W.W.W.A.T.W.W.W.W.W.W.W.W.W.W.W.W.W.W.W.W.W.W.",
"W.W.W.W.W.W.W.W.W.W.W.W.W.W.W.W.W.W.W.W.W.W.W.W.W.W.W.W.W.W.W.W.W.W.W.W.W.W.W.W.W.W.W.W.W.W.W.W.W.W.",
"W.W.W.W.W.W.W.W.W.W.W.W.W.W.W.W.W.W.W.W.W.W.W.W.W.G.G.W.W.W.W.W.W.W.W.W.W.W.W.W.W.W.W.W.W.W.W.W.W.W.",
"W.W.W.W.W.W.W.W.W.W.W.W.W.W.W.W.W.W.W.W.W.W.W.W.Q.P.I.G.W.W.W.W.W.W.W.W.W.W.W.W.W.W.W.W.W.W.W.W.W.W.",
"W.W.W.W.W.W.W.W.W.W.W.W.W.W.Q.G.F.W.W.W.W.W.W.W.Q.P.U.K.Q.G.F.W.W.W.W.W.W.W.W.W.W.W.W.W.W.W.W.W.W.W."
};
