/* XPM */
static char *_cf7f71602ba46f8cae754f168d25801YsssfFVQi7F7x8mg[] = {
/* columns rows colors chars-per-pixel */
"50 50 229 2 ",
"   c #010101",
".  c #0A0503",
"X  c #0C0A04",
"o  c #050309",
"O  c #0D0A0E",
"+  c #110D06",
"@  c #140D09",
"#  c #191507",
"$  c #1C140B",
"%  c #0D0710",
"&  c #0E0911",
"*  c #110715",
"=  c #110C12",
"-  c #111014",
";  c #1A1416",
":  c #15131A",
">  c #1A131C",
",  c #211609",
"<  c #231911",
"1  c #2B2312",
"2  c #26251B",
"3  c #352C16",
"4  c #3B3216",
"5  c #1D1623",
"6  c #1F1B23",
"7  c #221B25",
"8  c #241A26",
"9  c #2E1E33",
"0  c #25212A",
"q  c #2A232E",
"w  c #332A25",
"e  c #383027",
"r  c #2E2B33",
"t  c #332834",
"y  c #352D3B",
"u  c #363339",
"i  c #463A1E",
"p  c #493E21",
"a  c #49383A",
"s  c #503F3E",
"d  c #544B1B",
"f  c #55481D",
"g  c #544A1E",
"h  c #4A4425",
"j  c #544A21",
"k  c #554729",
"l  c #59512A",
"z  c #4E4537",
"x  c #5A4839",
"c  c #5D5538",
"v  c #675728",
"b  c #685A37",
"n  c #6E6434",
"m  c #7B6A3A",
"M  c #3D3544",
"N  c #3E3946",
"B  c #3F3749",
"V  c #423645",
"C  c #433945",
"Z  c #4A3941",
"A  c #42364A",
"S  c #41384A",
"D  c #493B4D",
"F  c #503F42",
"G  c #463950",
"H  c #4C3E53",
"J  c #4E3E59",
"K  c #513D57",
"L  c #454447",
"P  c #574D4E",
"I  c #4E4355",
"U  c #544558",
"Y  c #54445A",
"T  c #5A485F",
"R  c #4A5051",
"E  c #54595B",
"W  c #685A46",
"Q  c #745E49",
"!  c #675950",
"~  c #775D5C",
"^  c #67694B",
"/  c #776845",
"(  c #7E734D",
")  c #7A645C",
"_  c #7B645D",
"`  c #564760",
"'  c #594662",
"]  c #5C4B64",
"[  c #5E4C6A",
"{  c #585363",
"}  c #5C5B65",
"|  c #5F5E71",
" . c #614B65",
".. c #634E6B",
"X. c #694F6E",
"o. c #6A5463",
"O. c #65526C",
"+. c #685768",
"@. c #69516D",
"#. c #64586F",
"$. c #745B64",
"%. c #654F71",
"&. c #694F71",
"*. c #655472",
"=. c #695171",
"-. c #635973",
";. c #695874",
":. c #7B5F70",
">. c #5F676A",
",. c #5D696B",
"<. c #5D736A",
"1. c #557E6D",
"2. c #5A7A6D",
"3. c #587D70",
"4. c #65666D",
"5. c #626B6C",
"6. c #696F68",
"7. c #7B6363",
"8. c #786569",
"9. c #62726D",
"0. c #617B6D",
"q. c #757163",
"w. c #656472",
"e. c #696373",
"r. c #666E72",
"t. c #7C6672",
"y. c #667371",
"u. c #617E74",
"i. c #8A6E3F",
"p. c #87763C",
"a. c #947C3B",
"s. c #856C49",
"d. c #8A7446",
"f. c #917649",
"g. c #83695A",
"h. c #867655",
"j. c #977E59",
"k. c #8B7466",
"l. c #927B66",
"z. c #8A7374",
"x. c #4D8654",
"c. c #47865B",
"v. c #4A8B5E",
"b. c #57965C",
"n. c #57995F",
"m. c #5C9C5D",
"M. c #629E59",
"N. c #6CA456",
"B. c #63A15C",
"V. c #6CA759",
"C. c #71AA59",
"Z. c #4F8B65",
"A. c #538566",
"S. c #538C66",
"D. c #54826B",
"F. c #5B826B",
"G. c #578D6A",
"H. c #5A8C6B",
"J. c #4D9262",
"K. c #529463",
"L. c #589763",
"P. c #56936A",
"I. c #5E8272",
"U. c #5E8972",
"Y. c #64866E",
"T. c #61886F",
"R. c #638472",
"E. c #678972",
"W. c #9B803B",
"Q. c #A2863E",
"!. c #A1903D",
"~. c #998546",
"^. c #97865A",
"/. c #A58B49",
"(. c #A89548",
"). c #A48A54",
"_. c #A79758",
"`. c #B09655",
"'. c #B29C54",
"]. c #B4A34C",
"[. c #BBA849",
"{. c #BAA553",
"}. c #B3A758",
"|. c #828460",
" X c #AA9766",
".X c #B29864",
"XX c #A59079",
"oX c #BBA668",
"OX c #AFA173",
"+X c #C1AA4B",
"@X c #C6AA49",
"#X c #CDB24D",
"$X c #C2A852",
"%X c #C9B254",
"&X c #D3BA58",
"*X c #CBB366",
"=X c #CBB269",
"-X c #CEBC68",
";X c #D7BF62",
":X c #D2BD6C",
">X c #C8B274",
",X c #D4BB78",
"<X c #D5C15D",
"1X c #DAC459",
"2X c #E1C85B",
"3X c #D4C164",
"4X c #D9C263",
"5X c #DECB65",
"6X c #D6C17C",
"7X c #E3CC68",
"8X c #E3CD76",
"9X c #E8D474",
"0X c #86A883",
"qX c #9CBA90",
"wX c #B4AA8E",
"eX c #CBB983",
"rX c #CAB796",
"tX c #ABC48E",
"yX c #D5C792",
"uX c #DFD89E",
"iX c #E6D588",
"pX c #E0CC9A",
"aX c #EBD493",
"sX c #E6D39A",
"dX c #EFE09C",
"fX c #F7E69A",
"gX c #D4C5A1",
"hX c #F0DFA4",
"jX c #F4E7A6",
/* pixels */
"J.J.J.J.J.J.J.J.J.J.J.J.J.J.J.J.J.v.c.v.J.J.J.J.J.J.J.J.J.J.J.J.J.J.J.J.J.J.J.J.J.J.J.J.J.J.J.J.J.J.",
"J.J.J.J.J.J.J.J.J.J.J.J.J.J.J.J.J.J.J.J.J.J.J.J.J.J.J.J.J.J.J.J.J.J.J.J.J.J.J.J.J.J.J.J.J.J.J.J.J.J.",
"J.J.J.J.J.J.J.J.J.J.J.J.J.J.J.J.J.J.J.J.J.J.K.K.J.J.J.J.J.J.J.J.J.J.J.J.J.J.J.J.J.J.J.J.J.J.J.J.J.J.",
"J.J.J.J.J.J.J.J.J.J.J.J.J.J.J.J.J.J.J.J.J.K.B.B.K.J.J.J.J.J.J.J.J.J.J.J.J.J.J.J.J.J.J.J.J.J.J.J.J.J.",
"J.J.J.J.J.J.J.J.J.J.J.J.J.J.J.J.J.J.K.L.K.m.C.V.K.J.J.J.J.J.J.J.K.L.K.J.J.J.J.J.J.J.J.J.J.J.J.J.J.J.",
"J.J.J.J.J.J.J.J.J.J.J.J.J.J.J.J.K.F.Y.E.E.0XtXtXqX0XT.I.I.I.I.I.R.Y.H.J.J.J.J.J.J.J.J.J.J.J.J.J.J.J.",
"J.J.J.J.J.J.J.J.J.J.J.J.J.J.J.J.G.w.#.#.+.wXjXjXjXgX8.*.*.*.*.*.*.*.5.K.J.J.J.J.J.J.J.J.J.J.J.J.J.J.",
"J.J.J.J.J.J.J.J.J.J.J.J.K.G.G.G.R.;.@.t.k.eXfXaXpXrX8.&.&.@.@.=.&.X.e.H.G.G.G.K.J.J.J.J.J.J.J.J.J.J.",
"J.J.J.J.J.J.J.J.J.J.J.J.0.4.e.e.;.=.t.rXsX8X7XoXk.8.@.%.&.@.O.*.*.=.=.e.e.e.w.F.J.J.J.J.J.J.J.J.J.J.",
"J.J.J.J.J.J.J.J.J.J.J.K.y.O.O.%.*.%.t.pXfX8X3X Xo.....%.%.O.O.O...@.X.@.@.O.O.0.K.J.J.J.J.J.J.J.J.J.",
"J.J.J.J.J.J.J.J.J.J.A.0.e.*.@.@.*.O._ ,X8X_./ W I J J J J I K K ' O.@.@.@.=.*.w.u.F.J.J.J.J.J.J.J.J.",
"J.J.J.J.J.J.J.J.J.K.5.*.=.=.@.@.O.O._ =X4X/ a C V A G A A S A A J O.O.*.*.&.X.@.+.9.K.J.J.J.J.J.J.J.",
"J.J.J.J.J.J.J.S.G.R.;.&.&.*. .' ] O.$..X$X~.( ! C A S V S N N A G Y ` ' ' o.~ _ _ q.Y.U.H.J.J.J.J.J.",
"J.J.J.J.J.J.J.D.w.;.=.&.=.O.Y A J ..$.f.a.[.3X^.a M N S S N N N S S A V Z Q f.a.f.h.$.;.,.J.J.J.J.J.",
"J.J.J.J.J.J.J.3.*.*.X.X...[ I B H ..~ f.Q.@X1X`.! P u y y y M N A V C z x d.)././.j.$.&.,.J.J.J.J.J.",
"J.J.J.J.J.J.J.1.*.*.@...Y G S N I ..7.oX&X#X@X-XgXwX2 O O & q N S A F / d.>XaXiXiXrX:.&.,.J.J.J.J.J.",
"J.J.J.J.J.J.J.1.*.*.O...H A N M D %.7.*X1X%X].:XfXeX1 .     8 M N N s d.~.,XfXjXjXgXt.@.,.J.J.J.J.J.",
"K.J.J.J.J.J.J.1.*...Y I G N r > t  .7.*X1Xp.p p.:X*X_.|.2   = > > : e OX6X8X9X>XXXz.@.O.,.J.J.J.J.J.",
"m.n.J.J.J.J.J.1.*.[ G A S N 7   8  .7.*X<Xg   h {.%XfXuXh           2 yXfX9X1X.Xo.=.*.=.,.J.J.J.J.K.",
"B.m.K.J.J.J.J.1.*.[ D V y q : o 8  .7.*X<Xj   3 m ~.,X,X/ z 2   + 1 k yXfXoX~./ D J ..@.>.J.J.J.n.m.",
"B.B.m.n.J.J.J.1.*.[ D M : o     8  .7.=X<Xj   . X 1 i./.6XuX^   1 m ~.aXhXW + X o 5 ] @.5.J.J.J.m.B.",
"B.B.B.m.J.J.J.1.*.[ V u -       7  .7.=X&Xv $ +   $ b a.6XdX( , i s.).aXdXc       > ' @.5.J.J.J.n.M.",
"K.n.m.n.J.J.J.1.*.Y 7 = o       7 [ 7.'.@X]._.b . . $ 3 /.-X{._.^.~ k.sXdXc       > ' *.,.J.J.J.K.K.",
"J.J.K.K.J.J.J.1.*.Y =           8 [ _ `.+X&X5Xp.X     + p.$X&X2XoX+.t.pXdXc       > T =.,.J.J.J.J.J.",
"J.J.J.J.J.J.J.1.*.Y =           8 [ $.`.+X%X&X(.n k + X i v ~.&X`.+.8.6XiXl       > T =.,.J.J.J.J.J.",
"J.J.J.J.J.J.J.1.*.Y =           8 [ ~ `.+X+X+X#X4X'.,     X v {.).+.7.*X3Xj       > T =.,.J.J.J.J.J.",
"J.J.J.J.J.J.J.3.*.Y =           8 [ ~ `.[.!.a.(.<X].g 3 @   h f.h.+.7.*X;Xj       > T =.,.J.J.J.J.J.",
"J.J.J.J.J.J.J.3.*.Y =           8  .~ '.].g # l {.+X%X'.4   X # w [ 7.*X<Xj       > T =.,.J.J.J.J.J.",
"J.J.J.J.J.J.J.1.*.Y =           6 ] ~ _._.i   p (.[.1X%Xf + X   7 [ 7.*X<Xj       > T =.,.J.J.J.J.J.",
"J.J.J.J.J.J.J.1.*.Y =           > D Y 7._ w   $ 4 d ].%X(.~.h   7 [ 7.=X3Xj       > T =.,.J.J.J.J.J.",
"J.J.J.J.J.J.J.1.-.Y =           : M D ....8       1 (.+X<X4Xb . 7  .g.*X<Xg       > T =.,.J.J.J.J.J.",
"L.K.J.J.J.J.J.D.-.Y =           & 7 r ] O.x g 3   # c m (.$Xa.v b o.7.=X<Xg       > T @.,.J.J.J.J.J.",
"C.B.n.n.n.K.J.D.-.Y =               = Y +.^.}.n .   . # v W.{.;X.X+.7.=X;Xj       > ] &.,.J.J.J.J.J.",
"B.V.V.V.B.K.J.D.-.Y > O .           O S P h._./ ; =   X k m (.&X.Xo._ =X;Xj   . O 8 ] &.5.n.K.J.J.J.",
"K.b.N.M.n.J.J.A.| [ V t =             O ; L 7.o.' S O   + $ v Q.f.o._ =X3Xg   : y A ..%.6.V.m.n.m.n.",
"J.x.x.x.v.J.J.Z.,.} D N :               o B %.%.*.Y =       p d.s.o._ =X:Xj   > V H O.#.9.B.V.V.V.m.",
"J.v.c.v.J.J.J.J.S.F.} Y y 0 -             > q A *.[ A y =   < 4 a ..@.l.l.e   8 Y } R.E.H.b.M.N.b.J.",
"J.J.J.J.J.J.J.J.J.P.5.O.H N 7                 q O.O.=.] >       8 ..=.O. .8   q O.r.P.J.J.v.x.x.v.J.",
"J.J.J.J.J.J.J.J.J.J.F.<.{ H t : : : - .       5 A K .. .t 5 O   7 ....[ ' y 6 L 9.R.K.J.J.v.c.v.J.J.",
"J.J.J.J.J.J.J.J.J.J.J.K.9.O.I M M M r O         o 5 ] @...[ q   8 [ ..H G Y { 2.P.K.J.J.J.J.J.J.J.J.",
"J.J.J.J.J.J.J.J.J.J.J.J.F.5.E R R R L > O & O O % 7 T O.=.O.y * 9 ..O.Y R } 4.Y.J.J.J.J.J.J.J.J.J.J.",
"J.J.J.J.J.J.J.J.J.J.J.J.K.S.S.S.S.S.A.E H J H H H Y O.O.O.O.' K Y ..4.H.G.G.G.P.J.J.J.J.J.J.J.J.J.J.",
"J.J.J.J.J.J.J.J.J.J.J.J.J.J.J.J.J.J.K.5.*.*.;.;.;.;.*.#.#.#.*.;.;.#.r.P.J.J.J.J.J.J.J.J.J.J.J.J.J.J.",
"J.J.J.J.J.J.J.J.J.J.J.J.J.J.J.J.J.J.K.U.u.u.u.u.R.I.I.I.F.2.2.2.3.I.U.K.J.J.J.J.J.J.J.J.J.J.J.J.J.J.",
"J.J.J.J.J.J.J.J.J.J.J.J.J.J.J.J.J.J.J.J.J.J.J.J.J.J.J.J.J.v.c.v.J.J.J.J.J.J.J.J.J.J.J.J.J.J.J.J.J.J.",
"J.J.J.J.J.J.J.J.J.J.J.J.J.J.J.J.J.J.J.J.J.J.J.J.J.J.J.J.J.J.v.J.J.J.J.J.J.J.J.J.J.J.J.J.J.J.J.J.J.J.",
"J.J.J.J.J.J.J.J.J.J.J.J.J.J.J.J.J.J.J.J.J.J.J.J.J.J.J.J.J.J.J.J.J.J.J.J.J.J.J.J.J.J.J.J.J.J.J.J.J.J.",
"J.J.J.J.J.J.J.J.J.J.J.J.J.J.J.J.J.J.J.J.J.J.J.J.J.m.m.K.J.J.J.J.J.J.J.J.J.J.J.J.J.J.J.J.J.J.J.J.J.J.",
"J.J.J.J.J.J.J.J.J.J.J.J.J.J.J.K.J.J.J.J.J.J.J.J.K.B.V.m.J.K.J.J.J.J.J.J.J.J.J.J.J.J.J.J.J.J.J.J.J.J.",
"J.J.J.J.J.J.J.J.J.J.J.J.J.J.K.m.n.J.J.J.J.J.J.J.K.B.C.M.K.m.n.J.J.J.J.J.J.J.J.J.J.J.J.J.J.J.J.J.J.J."
};
