/* XPM */
static char *a08bf78e2c55473bf6777a03ee763d8bb9jKbhbE3udB7hod[] = {
/* columns rows colors chars-per-pixel */
"50 50 130 2 ",
"   c #4D9262",
".  c #4B8E5F",
"X  c #49895D",
"o  c #4B8E60",
"O  c #4D9162",
"+  c #4E9262",
"@  c #549760",
"#  c #55985F",
"$  c #4F9361",
"%  c #559760",
"&  c #66A35B",
"*  c #63A15B",
"=  c #529561",
"-  c #539660",
";  c #57995F",
":  c #529560",
">  c #5D9D5D",
",  c #71AA57",
"<  c #67A35A",
"1  c #519561",
"2  c #529660",
"3  c #599A5E",
"4  c #68A459",
"5  c #5F9A59",
"6  c #5D9857",
"7  c #68A358",
"8  c #4F9461",
"9  c #56985F",
"0  c #62A05B",
"q  c #589A5E",
"w  c #51925D",
"e  c #619A56",
"r  c #6A9F53",
"t  c #609652",
"y  c #569158",
"u  c #4F9260",
"i  c #58995F",
"p  c #4E8A58",
"a  c #568D53",
"s  c #538C54",
"d  c #4C8B5B",
"f  c #4C9061",
"g  c #62A15B",
"h  c #4B8D5F",
"j  c #48875B",
"k  c #49895C",
"l  c #5E9E5D",
"z  c #509461",
"x  c #4B8F60",
"c  c #48895C",
"v  c #4A8C5E",
"b  c #458258",
"n  c #468459",
"m  c #4C9161",
"M  c #498A5D",
"N  c #468359",
"B  c #47865B",
"V  c #4A8D5F",
"C  c #4E9362",
"Z  c #5A9B5E",
"A  c #5B9B5E",
"S  c #62A05C",
"D  c #6DA858",
"F  c #61A05C",
"G  c #619F5B",
"H  c #55965F",
"J  c #589A5F",
"K  c #619D59",
"L  c #5E9755",
"P  c #629A55",
"I  c #6BA457",
"U  c #5B9B5D",
"Y  c #609F5C",
"T  c #5E9D5D",
"R  c #4D9161",
"E  c #4F8D5A",
"W  c #5C9353",
"Q  c #679D53",
"!  c #5C9455",
"~  c #4E8E5C",
"^  c #4B8857",
"/  c #4C8554",
"(  c #4B8959",
")  c #4C8F60",
"_  c #5F9E5C",
"`  c #5F9F5C",
"'  c #4A8C5F",
"]  c #4F9362",
"[  c #5C9C5D",
"{  c #519461",
"}  c #5B9C5D",
"|  c #5C9D5D",
" . c #559860",
".. c #48885C",
"X. c #6BA659",
"o. c #549660",
"O. c #46855A",
"+. c #69A55A",
"@. c #6DA759",
"#. c #6CA759",
"$. c #619F5C",
"%. c #4A8B5E",
"&. c #56965D",
"*. c #669F57",
"=. c #6EA554",
"-. c #629C58",
";. c #52945F",
":. c #64A15B",
">. c #4E8654",
",. c #548B52",
"<. c #4E8B59",
"1. c #6AA659",
"2. c #468458",
"3. c #478559",
"4. c #509360",
"5. c #5E9A59",
"6. c #6DA354",
"7. c #679F56",
"8. c #57965C",
"9. c #4A8557",
"0. c #528852",
"q. c #508B56",
"w. c #4B8C5E",
"e. c #478458",
"r. c #61A05B",
"t. c #498B5D",
"y. c #458358",
"u. c #47855A",
"i. c #73AB57",
"p. c white",
/* pixels */
"                                  . X o                                                             ",
"                                    O                                                               ",
"                                          + @ # $                                                   ",
"                                          % & * =                                                   ",
"                                    - ; : > , < =               1 ; 2                               ",
"                                    3 4 5 6 7 > 8               9 0 q                               ",
"                                    w e r t y u             1 i > * q                               ",
"                                    . p a s d f             @ 0 * g q                               ",
"                                      h j k f               @ 0 l ; :                               ",
"                                                            z 9 -                                   ",
"                                                                                                    ",
"                                                          x c v O                                   ",
"                                                        f j b n v                                   ",
"                                                        m M N B o                                   ",
"                                                          m V x                                     ",
"                                                  C C                                               ",
"                                                $ Z A z                                             ",
"$ C                         + $ C               z S D > $ $ C                                       ",
"> @                         - > 9               8 F , G H > J C                                 + $ ",
"* q 8 C                     # g Z z C           + % K L P I U C                                 - > ",
"* Y > -                     # g F T %             R E W Q ! ~                                   # 0 ",
"Y 0 * #                     @ Y 0 * ;             O . ^ / ( )                                   @ _ ",
"= Z _ @                     $ 1 q ` 9                 o ' )                                     ] 1 ",
"  8 1 ]                         $ 1 $                                                               ",
"                  z z                                                         z z +                 ",
"                - > [ 1                                                     { } l @ +               ",
"              $ Z g 0 3 C                                                 + ; F * } z               ",
"                : | } 1                                                     z Z > -                 ",
"                  8 $                                                         $ 8 +                 ",
"                                                                                                    ",
"                                    f o m                                                           ",
" .z                               f ..n M m                                                         ",
"X.> o.; # $                       V O.b B x                                                         ",
"+.@.+.#.$.1                       O %.j h                       z - z                 C @ J 2       ",
"&.*.=.-.;.                          O m                     8 @ Z F ;                 8 > #.:.9 ; 3 ",
"k >.,.<.)                                                   @ $.* * q                   1 Y D 1.#.+.",
"v 2.3..                                                     @ 0 Y } @                     4.5.6.7.8.",
"  m R                                                       = Z # C                       o 9.0.q.w.",
"                                          - # $               C                           f j e.%.O ",
"                                        - _ r.q $                                           O O     ",
"                                        % Y g Z z                                                   ",
"                                        C # q z                                                     ",
"                                                          f t.V                                     ",
"                                                        f c y.O.h                                   ",
"                                                        f c y.u.h                                   ",
"                                                          f %.h                                     ",
"                                                                                                    ",
"                                                $ i i $                                             ",
"                              C +               z F X.A ] C +                                       ",
"                            = 3 @               z * i.S 2 q # +                                     "
};
