/* XPM */
static char *fb7e5e15975940958310a0f3a0e1f69eP72WfnwllmqYEYuf[] = {
/* columns rows colors chars-per-pixel */
"50 50 160 2 ",
"   c #020101",
".  c #0D0001",
"X  c #0B0909",
"o  c #120001",
"O  c #0A130D",
"+  c #101211",
"@  c #1E1D1D",
"#  c #260201",
"$  c #250E0A",
"%  c #360101",
"&  c #3D0001",
"*  c #28120E",
"=  c #1B261B",
"-  c #162A1C",
";  c #182E1F",
":  c #27251A",
">  c #2A2218",
",  c #382018",
"<  c #193625",
"1  c #1C3926",
"2  c #1E3D29",
"3  c #232323",
"4  c #292525",
"5  c #2E2D20",
"6  c #292A29",
"7  c #312222",
"8  c #273426",
"9  c #243D2B",
"0  c #3F3622",
"q  c #353535",
"w  c #3D3C3D",
"e  c #4B0102",
"r  c #5B0000",
"t  c #650203",
"y  c #6C0304",
"u  c #730000",
"i  c #7B0101",
"p  c #40281C",
"a  c #562017",
"s  c #413726",
"d  c #413E3F",
"f  c #25402D",
"g  c #2F4335",
"h  c #2A4E35",
"j  c #334535",
"k  c #3F4F37",
"l  c #374D3E",
"z  c #265036",
"x  c #2A5036",
"c  c #275338",
"v  c #295238",
"b  c #2F5C3E",
"n  c #34573F",
"m  c #305A3D",
"M  c #325E40",
"N  c #395A43",
"B  c #356343",
"V  c #386343",
"C  c #3A6E47",
"Z  c #376B48",
"A  c #3B6C49",
"S  c #3B724D",
"D  c #454445",
"F  c #4B4C4C",
"G  c #4D5051",
"H  c #555555",
"J  c #5B5C5C",
"K  c #427448",
"L  c #457A4C",
"P  c #427C54",
"I  c #636463",
"U  c #6D6D6D",
"Y  c #6E716F",
"T  c #757575",
"R  c #7C7C7B",
"E  c #850000",
"W  c #880000",
"Q  c #940000",
"!  c #9C0101",
"~  c #821516",
"^  c #881112",
"/  c #AD0101",
"(  c #A40B0D",
")  c #AE0809",
"_  c #B90203",
"`  c #A90A10",
"'  c #C60101",
"]  c #D10102",
"[  c #DC0102",
"{  c #E30101",
"}  c #EF0101",
"|  c #E7070C",
" . c #EB0509",
".. c #F10101",
"X. c #FE0000",
"o. c #FD060A",
"O. c #F5090F",
"+. c #FD080E",
"@. c #F60D16",
"#. c #FC0910",
"$. c #FC0E19",
"%. c #EA3A65",
"&. c #EF3F6C",
"*. c #F93D6B",
"=. c #F7406F",
"-. c #F84170",
";. c #4F824E",
":. c #50844D",
">. c #448056",
",. c #4A8555",
"<. c #46845A",
"1. c #48875B",
"2. c #4A8B5D",
"3. c #508752",
"4. c #538B54",
"5. c #588F53",
"6. c #589357",
"7. c #53955E",
"8. c #56995F",
"9. c #5B9C5D",
"0. c #619652",
"q. c #649D56",
"w. c #6A9F53",
"e. c #609F5B",
"r. c #6BA254",
"t. c #63A15B",
"y. c #6CA759",
"u. c #6DA858",
"i. c #72AB57",
"p. c #71AA5A",
"a. c #4B8F60",
"s. c #4D9262",
"d. c #519562",
"f. c #549861",
"g. c #5E9D61",
"h. c #609F60",
"j. c #F95799",
"k. c #F75A9C",
"l. c #F860A7",
"z. c #F764AC",
"x. c #8D8B8C",
"c. c #929292",
"v. c #9B9B9B",
"b. c #A9A7A8",
"n. c #ACABAB",
"m. c #BCBCBC",
"M. c #F8A2C6",
"N. c #FAA5C9",
"B. c #C5C4C4",
"V. c #CCCBCB",
"C. c #D4D3D4",
"Z. c gainsboro",
"A. c #FAD2ED",
"S. c #FBD9F0",
"D. c #E2E2E2",
"F. c #E8E7E8",
"G. c #EEEDEE",
"H. c #F0EFF0",
"J. c #F4F4F4",
"K. c #FCFCFC",
/* pixels */
"d.s.s.s.s.s.s.s.s.s.s.s.s.s.s.s.s.2.1.2.s.s.s.s.s.s.s.s.s.s.s.s.s.s.s.s.s.s.s.s.s.s.s.s.s.s.s.s.s.s.",
"d.s.s.s.s.s.s.s.s.s.s.s.s.s.s.s.s.s.s.s.s.s.s.s.s.s.s.s.s.s.s.s.s.s.s.s.s.s.s.s.s.s.s.s.s.s.s.s.s.s.",
"d.s.s.s.s.s.s.s.s.s.s.s.s.s.s.s.s.s.s.s.s.s.7.f.s.s.s.s.s.s.s.s.s.s.s.s.s.s.s.s.s.s.s.s.s.s.s.s.s.s.",
"d.s.s.s.s.s.s.s.s.s.s.s.s.s.s.s.s.s.s.s.s.d.t.t.d.s.s.s.s.s.s.s.s.s.s.s.s.s.s.s.s.s.s.s.s.s.s.s.s.s.",
"d.s.s.s.s.s.s.s.s.s.s.s.s.s.s.s.s.s.d.f.d.9.p.t.d.s.s.s.s.s.s.s.d.f.d.s.s.s.s.s.s.s.s.s.s.s.s.s.s.s.",
"d.s.s.s.s.s.s.s.s.s.s.s.s.s.s.s.s.s.8.t.9.9.y.9.d.s.s.s.s.s.s.s.8.t.f.s.s.s.s.s.s.s.s.s.s.s.s.s.s.s.",
"d.s.s.s.s.s.s.s.s.s.s.s.s.s.s.s.s.s.7.q.w.0.6.d.s.s.s.s.s.s.d.8.9.t.f.s.s.s.s.s.s.s.s.s.s.s.s.s.s.s.",
"d.s.s.s.s.s.s.s.s.s.s.s.s.s.s.s.s.s.a.2.5.5.2.s.s.s.s.s.s.s.8.t.t.t.f.s.s.s.s.s.s.s.s.s.s.s.s.s.s.s.",
"d.s.s.s.s.s.s.s.s.s.s.s.s.s.s.s.s.s.s.2.1.1.a.s.s.s.s.s.s.s.8.t.9.8.d.s.s.s.s.s.s.s.s.s.s.s.s.s.s.s.",
"d.s.s.s.s.s.s.s.s.s.s.s.s.s.s.s.s.s.s.s.s.s.s.s.s.s.s.s.s.s.d.8.d.s.s.s.s.s.s.s.s.s.s.s.s.s.s.s.s.s.",
"d.s.s.s.s.s.s.s.s.s.s.s.s.s.s.s.s.s.s.s.s.s.s.s.s.s.s.s.s.s.s.s.s.s.s.s.s.s.s.s.s.s.s.s.s.s.s.s.s.s.",
"d.s.s.s.s.s.s.s.s.s.s.s.s.s.s.s.s.s.s.s.s.s.s.s.s.s.s.s.s.a.1.2.s.s.s.s.s.s.s.s.s.s.s.s.s.s.s.s.s.s.",
"d.s.s.s.s.s.s.s.s.s.s.s.s.s.s.s.s.s.s.s.s.s.s.s.s.s.s.s.a.1.<.1.2.s.s.s.s.s.s.s.s.s.s.s.s.s.s.s.s.s.",
"d.s.s.s.s.s.s.s.s.s.s.s.s.s.s.s.s.s.s.s.s.s.s.s.s.s.s.s.s.1.<.1.a.s.s.s.s.s.s.s.s.s.s.s.s.s.s.s.s.s.",
"d.s.s.s.s.s.s.s.s.s.s.s.s.s.s.s.s.s.s.s.s.s.s.s.s.s.s.s.s.s.2.a.s.s.s.s.s.s.s.s.s.s.s.s.s.s.s.s.s.s.",
"d.s.s.s.s.s.s.s.s.s.s.s.s.s.s.s.s.s.s.s.s.s.s.s.s.s.s.s.s.s.s.s.s.s.s.s.s.s.s.s.s.s.s.s.s.s.s.s.s.s.",
"d.s.s.s.s.s.s.s.s.s.s.s.s.s.s.s.s.s.s.s.s.s.S 1 1 1 1 < b s.s.s.s.s.s.s.s.s.s.s.s.s.s.s.s.s.s.s.s.s.",
"d.s.s.s.s.s.s.s.s.s.s.s.s.s.s.s.s.s.s.s.Z c s y u u u u a v b 2.s.s.s.s.s.s.s.s.s.s.s.s.s.s.s.s.s.s.",
"h.8.s.s.s.s.s.s.s.s.s.s.s.s.d.9.8.s.s.S p & E X.X.X.X.X._ & $ V 1.s.s.s.s.s.s.s.s.s.s.s.s.s.s.s.s.s.",
"t.9.d.s.s.s.s.s.s.s.s.s.s.s.d.t.9.s.P > ` @.O.X.X.X.X.X.X.[ E $ A a.s.s.s.s.s.s.s.s.s.s.s.s.s.s.8.9.",
"t.t.9.8.s.s.s.s.s.s.s.s.s.s.d.t.t.5.: ) &.l.*.o.X.X.X.X.X.X.[ i * B s.s.s.s.s.s.s.s.s.s.s.s.s.s.9.t.",
"t.e.t.9.s.s.s.s.s.s.s.s.s.s.d.9.:.0 ( %.N.A.M.*.o.X.X.X.X.X...Q t , M s.s.s.s.s.s.s.s.s.s.s.s.s.8.e.",
"f.8.9.8.s.s.s.s.s.s.s.s.s.s.s.f.C # | j.A.K.A.k.+.X.X.X.X.X.} Q W % 2 s.s.s.s.s.s.s.s.s.s.s.s.s.d.d.",
"d.s.d.d.s.s.s.s.s.s.s.s.s.s.s.<.k t  .*.N.S.N.*.o.X.X.X.X.X...Q W e 5 P s.s.s.s.s.s.s.s.s.s.s.s.s.s.",
"d.s.s.s.s.s.s.s.s.d.d.s.s.s.s.v e ..X.o.-.z.=.o.X.X.X.X.X.X.{ Q W W e ; a.s.s.d.d.s.s.s.s.s.s.s.s.s.",
"d.s.s.s.s.s.s.s.d.9.9.f.s.s.s.z e ..X.X.#.$.#.X.X.X.X.X.X.{ ! W W W e - a.s.d.9.9.d.s.s.s.s.s.s.s.s.",
"d.s.s.s.s.s.s.s.8.e.t.9.d.s.s.x o t } X.X.X.X.X.X.X.X.X.[ ! W W W e o - a.s.8.t.t.8.s.s.s.s.s.s.s.s.",
"d.s.s.s.s.s.s.s.s.8.9.d.s.s.s.x   o u { X.X.] u u i [ X.] W W W W %   - a.s.d.9.8.d.s.s.s.s.s.s.s.s.",
"d.s.s.s.s.s.s.s.s.s.s.s.s.s.s.h       W / / ~ w G w ^ ' _ W E r r # O h s.s.s.s.s.s.s.s.s.s.s.s.s.s.",
"d.s.s.s.s.s.s.s.s.s.s.s.s.s.s.m O X 3 X     d B.J.m.q & u u y 7 @ X 2 s.s.s.s.s.s.s.s.s.s.s.s.s.s.s.",
"d.s.s.s.s.s.s.s.s.s.s.s.s.s.s.a.B 6 B.w X   H J.K.G.D   . . 4 V.n.w 1 s.s.s.s.s.s.s.s.s.s.s.s.s.s.s.",
"g.d.s.s.s.s.s.s.s.s.s.s.s.s.s.s.B 6 F.C.B.J w V.J.B.q       3 D.B.D 1 s.s.s.s.s.s.s.s.s.s.s.s.s.s.s.",
"p.t.8.8.8.d.s.s.s.s.s.s.s.s.s.s.>.N Y m.J.V.T F I F R c.c.c.v.B.U l C s.s.s.s.s.s.s.s.s.s.s.s.s.s.s.",
"t.y.y.y.t.f.s.s.s.s.s.s.s.s.s.s.s.1.f J m.K.V.J J J C.K.K.F.C.T j K d.s.s.s.s.s.s.s.s.d.8.8.d.s.s.s.",
"d.9.r.w.8.s.s.s.s.s.s.s.s.s.s.s.s.s.2.9 I n.Z.G.G.G.H.J.V.x.R 8 ;.t.f.s.s.s.s.s.s.s.s.d.t.y.9.8.9.8.",
"s.,.3.4.2.s.s.s.s.s.s.s.s.s.s.s.s.s.s.2.9 + F b.b.b.b.n.U + = 4.t.t.f.s.s.s.s.s.s.s.s.s.f.t.u.y.y.9.",
"d.1.1.1.s.s.s.s.s.s.s.s.s.s.s.s.s.s.s.s.P S n 6 4 4 4 4 g S L e.9.8.d.s.s.s.s.s.s.s.s.s.s.7.q.r.9.d.",
"d.s.s.s.s.s.s.s.s.s.s.s.s.s.s.s.s.s.s.s.s.s.>.m m m m m S s.d.8.d.s.s.s.s.s.s.s.s.s.s.s.s.1.,.3.2.s.",
"d.s.s.s.s.s.s.s.s.s.s.s.s.s.s.s.s.s.s.s.s.f.8.d.s.s.s.s.s.s.s.s.s.s.s.s.s.s.s.s.s.s.s.s.s.2.1.1.s.s.",
"d.s.s.s.s.s.s.s.s.s.s.s.s.s.s.s.s.s.s.s.f.9.t.8.s.s.s.s.s.s.s.s.s.s.s.s.s.s.s.s.s.s.s.s.s.s.s.s.s.s.",
"d.s.s.s.s.s.s.s.s.s.s.s.s.s.s.s.s.s.s.s.d.9.t.8.s.s.s.s.s.s.s.s.s.s.s.s.s.s.s.s.s.s.s.s.s.s.s.s.s.s.",
"d.s.s.s.s.s.s.s.s.s.s.s.s.s.s.s.s.s.s.s.s.d.8.d.s.s.s.s.s.s.s.s.s.s.s.s.s.s.s.s.s.s.s.s.s.s.s.s.s.s.",
"d.s.s.s.s.s.s.s.s.s.s.s.s.s.s.s.s.s.s.s.s.s.s.s.s.s.s.s.s.a.1.2.s.s.s.s.s.s.s.s.s.s.s.s.s.s.s.s.s.s.",
"d.s.s.s.s.s.s.s.s.s.s.s.s.s.s.s.s.s.s.s.s.s.s.s.s.s.s.s.a.1.<.1.2.s.s.s.s.s.s.s.s.s.s.s.s.s.s.s.s.s.",
"d.s.s.s.s.s.s.s.s.s.s.s.s.s.s.s.s.s.s.s.s.s.s.s.s.s.s.s.s.1.<.1.a.s.s.s.s.s.s.s.s.s.s.s.s.s.s.s.s.s.",
"d.s.s.s.s.s.s.s.s.s.s.s.s.s.s.s.s.s.s.s.s.s.s.s.s.s.s.s.s.s.2.a.s.s.s.s.s.s.s.s.s.s.s.s.s.s.s.s.s.s.",
"d.s.s.s.s.s.s.s.s.s.s.s.s.s.s.s.s.s.s.s.s.s.s.s.s.s.s.s.s.s.s.s.s.s.s.s.s.s.s.s.s.s.s.s.s.s.s.s.s.s.",
"d.s.s.s.s.s.s.s.s.s.s.s.s.s.s.s.s.s.s.s.s.s.s.s.s.8.9.d.s.s.s.s.s.s.s.s.s.s.s.s.s.s.s.s.s.s.s.s.s.s.",
"d.s.s.s.s.s.s.s.s.s.s.s.s.s.s.s.s.s.s.s.s.s.s.s.d.t.u.9.s.s.s.s.s.s.s.s.s.s.s.s.s.s.s.s.s.s.s.s.s.s.",
"d.s.s.s.s.s.s.s.s.s.s.s.s.s.d.9.8.s.s.s.s.s.s.s.d.t.i.e.f.9.8.s.s.s.s.s.s.s.s.s.s.s.s.s.s.s.s.s.s.s."
};
