/* XPM */
static char *_03ca1c4842e4225bc4955719cf0cfedLb5MRMghxGJk0ILC[] = {
/* columns rows colors chars-per-pixel */
"50 50 223 2 ",
"   c #1C2C19",
".  c #1E3018",
"X  c #27261D",
"o  c #35261A",
"O  c #3B2C1E",
"+  c #203419",
"@  c #1E2921",
"#  c #252422",
"$  c #2C2423",
"%  c #232C24",
"&  c #292A28",
"*  c #352925",
"=  c #342D24",
"-  c #243226",
";  c #293127",
":  c #253A24",
">  c #26332B",
",  c #2A342B",
"<  c #263F2B",
"1  c #2C3D2D",
"2  c #3B352A",
"3  c #362732",
"4  c #2F3433",
"5  c #2D3D32",
"6  c #373A36",
"7  c #323C34",
"8  c #45362E",
"9  c #46392A",
"0  c #533D2A",
"q  c #453D34",
"w  c #4A3A36",
"e  c #27411C",
"r  c #2A4529",
"t  c #2A432D",
"y  c #32482D",
"u  c #2C512D",
"i  c #33562D",
"p  c #2D4433",
"a  c #2E4A34",
"s  c #324434",
"d  c #394737",
"f  c #344B34",
"g  c #344439",
"h  c #354C3C",
"j  c #394B3C",
"k  c #2D5033",
"l  c #345333",
"z  c #3B5536",
"x  c #375A37",
"c  c #35533B",
"v  c #3C543C",
"b  c #36593B",
"n  c #3A5A3C",
"m  c #3A6539",
"M  c #57422E",
"N  c #49453B",
"B  c #594837",
"V  c #44553E",
"C  c #644C3C",
"Z  c #665439",
"A  c #6B533D",
"S  c #7D593F",
"D  c #40633E",
"F  c #4A7E3D",
"G  c #483A43",
"H  c #4A3A44",
"J  c #513E44",
"K  c #3D4742",
"L  c #3D4D41",
"P  c #3C5341",
"I  c #365941",
"U  c #3D5C44",
"Y  c #356341",
"T  c #3C6243",
"R  c #3A6946",
"E  c #3E634A",
"W  c #3E6D4B",
"Q  c #3F714D",
"!  c #484947",
"~  c #5E4A43",
"^  c #584845",
"/  c #5B414D",
"(  c #435B45",
")  c #455D49",
"_  c #495A4B",
"`  c #5A544A",
"'  c #5A4251",
"]  c #565451",
"[  c #634A47",
"{  c #655442",
"}  c #685448",
"|  c #7C5D44",
" . c #765A48",
".. c #605A50",
"X. c #735C51",
"o. c #446344",
"O. c #4C6644",
"+. c #446C43",
"@. c #496B46",
"#. c #43644B",
"$. c #4A644B",
"%. c #416B4B",
"&. c #4C6C4C",
"*. c #467345",
"=. c #497346",
"-. c #4A7A43",
";. c #42734C",
":. c #4C734B",
">. c #4C7C4A",
",. c #53734B",
"<. c #58714D",
"1. c #537B4D",
"2. c #4A6350",
"3. c #4C6B51",
"4. c #506550",
"5. c #536D51",
"6. c #447553",
"7. c #4C7656",
"8. c #447C55",
"9. c #557552",
"0. c #547B52",
"q. c #5A7953",
"w. c #7B6447",
"e. c #68635C",
"r. c #756154",
"t. c #776953",
"y. c #6E6C68",
"u. c #766D69",
"i. c #6E746B",
"p. c #79756D",
"a. c #7B7C75",
"s. c #89623E",
"d. c #836544",
"f. c #856847",
"g. c #8B6D46",
"h. c #86644D",
"j. c #8C6C4B",
"k. c #95764A",
"l. c #9C7A4C",
"z. c #846953",
"x. c #8A7358",
"c. c #937655",
"v. c #9C7C55",
"b. c #95795C",
"n. c #987959",
"m. c #A47D54",
"M. c #877A68",
"N. c #957C64",
"B. c #4E8341",
"V. c #54844C",
"C. c #568A4A",
"Z. c #5C924F",
"A. c #468056",
"S. c #4D8453",
"D. c #4F8B57",
"F. c #478359",
"G. c #49845B",
"H. c #4B8C5E",
"J. c #5A8554",
"K. c #538A53",
"L. c #5C8B54",
"P. c #598C57",
"I. c #5D9352",
"U. c #53945E",
"Y. c #56985F",
"T. c #5B9B5D",
"R. c #608B56",
"E. c #648D5C",
"W. c #698E5A",
"Q. c #639456",
"!. c #649D55",
"~. c #64925C",
"^. c #69925B",
"/. c #659B5B",
"(. c #6B9D5D",
"). c #6BA555",
"_. c #66A857",
"`. c #64A25B",
"'. c #6BA45B",
"]. c #6CA859",
"[. c #73A65C",
"{. c #4C8E60",
"}. c #518C63",
"|. c #4D9262",
" X c #529464",
".X c #5A9665",
"XX c #559468",
"oX c #5B936C",
"OX c #599969",
"+X c #5D9C70",
"@X c #6A8D61",
"#X c #618F6F",
"$X c #6C9564",
"%X c #629C62",
"&X c #6C9C62",
"*X c #729D66",
"=X c #719969",
"-X c #658F72",
";X c #6B8E76",
":X c #758A79",
">X c #649273",
",X c #6A9275",
"<X c #74927D",
"1X c #6DA261",
"2X c #72A163",
"3X c #72A168",
"4X c #9C8057",
"5X c #A7864E",
"6X c #A58354",
"7X c #A88554",
"8X c #9F8361",
"9X c #82837E",
"0X c #7D8D83",
"qX c #7B9282",
"wX c #818C85",
"eX c #8A8A86",
"rX c #8C8C8C",
"tX c #908F8D",
"yX c #86938A",
"uX c #89938B",
"iX c #939494",
"pX c #A29B97",
"aX c #B3B3B1",
/* pixels */
"|.|.|.|.|.|.|.|.|.|.|.|.|.|.|.|.|.H.H.H.|.|.|.|.|.|.|.|.|.|.|.|.|.|.|.|.|.|.|.|.|.|.|.|.|.|.|.|.|.|.",
"|.|.|.|.|.|.|.|.|.|.|.|.|.|.|.|.|.|.|.|.|.|.|.|.|.|.|.|.|.|.|.|.|.|.|.|.|.|.|.|.|.|.|.|.|.|.|.|.|.|.",
"|.|.|.|.|.|.|.|.|.|.|.|.|.|.|.|.|.|.|.|.|.{.U.U.H.H.H.H.{.{.|.|.|.|.|.|.|.|.|.|.|.|.|.|.|.|.|.|.|.|.",
"|.|.|.|.|.|.|.|.|.|.|.|.|.|.|.|.|.|.|.|.H.T l i u u k k c c ;.|.|.|.|.|.|.|.|.|.|.|.|.|.|.|.|.|.|.|.",
"|.|.|.|.|.|.|.|.|.|.|.|.|.|.|.|.|.|. XU.8.f : e e e r : - - c G.U.Y. X|.|.|.|.|.|.|.|.|.|.|.|.|.|.|.",
"|.|.|.|.|.|.|.|.|.|.|.|.|.|.|.|.|.|.Y.+.a ( 9.W.W.W.@Xq.o.d 1 t S.`. X|.|.|.|.|.|.|.|.|.|.|.|.|.|.|.",
"|.|.|.|.|.|.|.|.|.|.|.|.|.|.|.|. XH.;.x l 0.^.2X2X2X*XE.q.o.j s D V. X|.|.|.|.|.|.|.|.|.|.|.|.|.|.|.",
"|.|.|.|.|.|.|.|.|.|.|.|.|.|.|. XOX7.: z 1.&X'.'.'.'.1X&X$X9.5.4.1 f  X|.|.|.|.|.|.|.|.|.|.|.|.|.|.|.",
"|.|.|.|.|.|.|.|.|.|.|.|.|.|.|. XE j v 1.Q.'.'.'.'.'.'.I.V.:.&.&.: t .X X|.|.|.|.|.|.|.|.|.|.|.|.|.|.",
"|.|.|.|.|.|.|.|.|.|.|.|.|.|.|.}.5 1 9.^.'.).).'.'.'./.C.F =.:.&.t a }. X|.|.|.|.|.|.|.|.|.|.|.|.|.|.",
"|.|.|.|.|.|.|.|.|.|.|.|.|.|.XXXXt y @X&X'.).).].'./.B.Z./.>.=.&.$.( p 6. X|.|.|.|.|.|.|.|.|.|.|.|.|.",
"|.|.|.|.|.|.|.|.|.G.W R R R W W r z =X1X'.'.).'.Q.I.V.L.L.-.=.:.5._ % %. X|.|.|.|.|.|.|.|.|.|.|.|.|.",
"|.|.|.|.|.|.|.|.|.Q - + . . . + y O.$X&X'.'.'.(.B.V.$XP.*.*.=.:.5.( % E  X|.|.|.|.|.|.|.|.|.|.|.|.|.",
"|.|.|.|.|.|.|.H.Y l v O.<.<.<.<.q.1.*.>.P./.!.C.L.R.J.>.=.*.=.:.o.d @ %.+X X|.|.|.|.|.|.|.|.|.|.|.|.",
"|.|.|.|.|.|.H.8.r r 1.^.2X2X2X3X2XL.m m :.~.L.-.Q.Q.:.=.:.:.:.&.v s % U }.}.{.|.|.|.|.|.|.|.|.|.|.|.",
"|.|.|.|.|.|.W t n ,./.'.].'.'.1X'.'.~.*.x :.:.*.>.>.:.=.:.:.%.b f f s 1 < a Q |.|.|.|.|.|.|.|.|.|.|.",
"|.|.|.|.H.6.I f ,.E.1X'.'.'.'.].'.'.1XJ.@.o.+.:.*.*.:.:.&.o.o.n @.&.&.V z s b 6.H.|.|.|.|.|.|.|.|.|.",
"|.|.|.|.F.t f <.$X1X1X'.'.'.).).).].'.*X@Xn U :.:.:.:.3.3.b m :.E.*X*X=X$X9.( a 8.|.|.|.|.|.|.|.|.|.",
"T.Y.|.|.8.< f ,.$X1X'._.'.).).).).).'.2X$Xn U 3.5.&.9.#.U T :.E.&X1X'.'.&X~.9.V E 8.|.|.|.|.|.|.|.|.",
"`.T. X|.8.< f ,.~.'._.].].].].).).).'.(.E.I U 3.3.&.&.U b =.L.2X'.'.).].'.&XE.5.f b H.|.|.|.|.|.Y.T.",
"`.`.T.Y.A.< f ,.$X'._._._.'.'.[.).].'.L.:.c h P P c c c b E.(.'.'.).).).`.V.-.&.v f T G.|.|.|.|.T.`.",
"/.`.`.T.A.t f $.R./.'._._.'./.Q.'.(.Q.:.U t s j j h h c o./.'.'.'.'.).!.I.C.1.:.o.j < 6. X|.|.|.Y./.",
" XY.T.Y.F.a s v @.V.(.'.'.1XP.>.$X$X:.U f   , K K j j ) 1./.'.'.'.'.'.C.-./.~.:.:.( > %. X|.|.|. X X",
"|.|. X|.H.6.I p v @.J.J.J.J.:.T 0.0.( p >   % 4 4 , > P ,.V.I.1X2X(.L.L.L.J.0.:.:.( - E  X|.|.|.|.|.",
"|.|.|.|.|.|.W p f v &.@.@.&.( c $.o.d g 4 # # $ $ # @ j &.*.V.&X&X^.-.L.$X1.:.:.&.( % E |.|.|.|.|.|.",
"|.|.|.|.|.|.H.8.a p v P P P L j L d - rXaX6 3 H J 6 # 5 P &.:.1.1.1.=.:.1.:.:.3.( d - T |.|.|.|.|.|.",
"|.|.|.|.|.|.|.{.%.n j 7 7 5 7 7 7 4 , a.pXH G ' ' G # , g ) &.&.+.+.=.+.+.:.&.$.d s c 8.|.|.|.|.|.|.",
"|.|.|.|.|.|.|.|.|.S.c 5 > % % # X = B 9 * J ' ' / w X X % g ( 3.n b &.T b &.$.j > p G.|.|.|.|.|.|.|.",
"|.|.|.|.|.|.|.|.|.H.A.6.W W a # q { z.| A ~ / / [ ~ 8 = X ; g _ ) #.U #.#.) j , c ;.{.|.|.|.|.|.|.|.",
"|.|.|.|.|.|.|.|.|.|.|.|.|.|.W 7 ^ r.N.8Xn.{ ~ [  . .C 8 $ # , j _ ) h ( 2.j 5 < 6.|.|.|.|.|.|.|.|.|.",
"|.|.|.|.|.|.|.|.|.|.|.|.|.|.{.7.d 8 { x.4X| }  .c.v.b.r.] ! 6 % > - @ - > > I G.H.|.|.|.|.|.|.|.|.|.",
"Y. X|.|.|.|.|.|.|.|.|.|.|.|.|. X( 6 q w.c.j.d.f.v.6Xn.X.^ G g s p p a p a I 8.|.|.|.|.|.|.|.|.|.|.|.",
"].`.Y.Y.Y. X|.|.|.|.|.|.|.|.|.|.XX7.$ B w.v.6X7X7Xl.| 0 $ # h }. X X X}.{.{.|.|.|.|.|.|.|.|.|.|.|.|.",
"`.].'.].`. X|.|.|.|.|.|.|.|.|.|. X}.3.N M d.l.5X7Xj.0 V #.#.6.|. X X X|.|.|.|.|.|.|.|. XY.Y. X|.|.|.",
"U.T.).!.U.|.|.|.|.|.|.|.|.|.|.|.|.|.+XV o A j.7X7Xd.o &.+XXX.XY.T.`. X|.|.|.|.|.|.|.|. X`.].T.Y.Y.Y.",
"H.S.K.D.H.|.|.|.|.|.|.|.|.|.|.|.|.|. Xv * { j.6Xg.Z X 2.XX|.Y.`.`.`. X|.|.|.|.|.|.|.|.|.U.`.].].].T.",
"{.G.F.H.|.|.|.|.|.|.|.|.|.|.|.|.|.|. Xj * } j.6Xf.B & #. X|.Y.`.T.Y. X|.|.|.|.|.|.|.|.|.|.U.!.).T. X",
"|.|.|.|.|.|.|.|.|.|.|.|.|.|.|.|.|.|.|.h * A g.6Xh.~ # #.XX|. XY. X|.|.|.|.|.|.|.|.|.|.|.|.H.S.K.H.|.",
"|.|.|.|.|.|.|.|.|.|.|.|.|.|.|.|.|. X,X! = w.l.6Xh.~ X 4.,X.X|.|.|.|.|.|.|.|.|.|.|.|.|.|.|.H.F.G.|.|.",
"|.|.|.|.|.|.|.|.|.|.|.|.|.|.|.|.|.>X0X! 2 k.5Xm.h.C O ..:XoX|.|.|.|.|.|.|.|.|.|.|.|.|.|.|.|.|.|.|.|.",
"|.|.|.|.|.|.|.|.|.|.|.|.|.|.|. X,Xi.N ! { 4Xl.s.| | z.B N :X,XXX|.|.|.|.|.|.|.|.|.|.|.|.|.|.|.|.|.|.",
"|.|.|.|.|.|.|.|.|.|.|.|.|.|.oX;Xp.e.q ~ r.c.j.S d.j.b.A 0 e.a.<X#X X|.|.|.|.|.|.|.|.|.|.|.|.|.|.|.|.",
"|.|.|.|.|.|.|.|.|.|.|.|.|.oXqX9Xq N M.u.X. .|  .n.c.w.x.x.2 ] rXwX-X|.|.|.|.|.|.|.|.|.|.|.|.|.|.|.|.",
"|.|.|.|.|.|.|.|.|.|.|.|.oXqXrXeXe.` ` ^ w 0 B X.N.x.M B { ] i.rXrXwXoX|.|.|.|.|.|.|.|.|.|.|.|.|.|.|.",
"|.|.|.|.|.|.|.|.|.|.|.|.,XwXrXrXrXy.= $ $ o 9 } M.t.O o 2 9XiXrXrXeX;X X|.|.|.|.|.|.|.|.|.|.|.|.|.|.",
"|.|.|.|.|.|.|.|.|.|.|. X,XqXuXrXrX9Xi.y.u.u.` 2 9 B u.p.a.rXiXrXrXwX;X X|.|.|.|.|.|.|.|.|.|.|.|.|.|.",
"|.|.|.|.|.|.|.|.|.|.|.|.>XqXuXrXrXrXrXrXrXeXy.q 6 ` tXiXiXiXiXrXrX0X#X|.|.|.|.|.|.|.|.|.|.|.|.|.|.|.",
"|.|.|.|.|.|.|.|.|.|.|.|.XX<XwXrXrXrXrXrXrXrXrXrXeXrXiXiXiXiXiXrXwX;X X|.|.|.|.|.|.|.|.|.|.|.|.|.|.|.",
"|.|.|.|.|.|.|.|.|.|.|.|. XoX,X<X0X0XwXwXwXwXyXuXuXuXuXuXuXuXyXqX;XXX|.|.|.|.|.|.|.|.|.|.|.|.|.|.|.|.",
"|.|.|.|.|.|.|.|.|.|.|.|.|.|. X%X.X X X X X X X X.X1X[.%X.X%X.X X|.|.|.|.|.|.|.|.|.|.|.|.|.|.|.|.|.|."
};
